{"glyphs":{"0":{"ha":485,"x_min":0,"x_max":0,"o":"m 224 10 b 472 581 404 10 472 446 b 310 815 472 685 438 815 b 90 439 189 815 108 528 b 69 254 78 378 69 315 b 224 10 69 157 100 10 z m 360 714 b 404 600 392 714 404 625 b 246 74 404 515 347 74 b 176 261 182 74 176 217 b 193 406 176 310 183 358 b 360 714 206 465 279 714 z "},"1":{"ha":414,"x_min":0,"x_max":0,"o":"m 69 51 b 111 15 68 24 86 17 b 394 75 154 14 392 21 b 350 93 396 90 360 92 l 260 101 b 371 711 288 311 354 518 b 313 822 375 753 368 819 b 276 811 297 822 288 821 b 115 597 243 786 117 635 b 136 571 115 586 124 571 b 260 699 175 568 242 668 b 168 96 226 508 199 268 b 69 51 140 83 72 104 z "},"2":{"ha":461,"x_min":0,"x_max":0,"o":"m 57 47 b 132 0 57 1 96 0 b 361 61 168 0 361 13 b 161 83 361 96 206 82 b 435 694 257 257 435 490 b 301 849 435 783 400 849 b 88 692 222 849 88 783 b 128 638 88 669 100 638 b 288 754 151 638 197 754 b 329 667 321 754 329 693 b 175 304 329 582 215 383 b 57 47 149 253 57 96 z "},"3":{"ha":440,"x_min":0,"x_max":0,"o":"m 182 15 b 411 256 336 15 411 125 b 250 428 411 368 329 425 b 426 732 304 468 426 599 b 306 825 426 789 374 825 b 106 708 233 825 110 753 b 150 653 103 676 133 639 b 290 742 188 683 244 742 b 321 697 314 742 322 721 b 163 418 315 588 168 496 b 199 378 161 406 169 383 b 314 232 257 367 314 326 b 179 90 314 168 278 90 b 56 151 101 90 79 151 b 38 136 46 151 39 147 b 182 15 32 71 129 15 z "},"4":{"ha":417,"x_min":0,"x_max":0,"o":"m 271 388 b 242 235 265 339 246 285 b 282 -1 232 135 238 0 b 301 15 290 -1 299 8 b 417 638 307 31 415 613 b 368 683 418 672 400 682 b 276 456 306 686 292 499 b 143 443 242 443 183 442 b 338 754 161 493 335 669 b 293 803 339 776 315 801 b 274 797 286 803 279 801 b 32 408 239 772 33 440 b 89 367 31 365 54 368 b 271 388 125 365 239 375 z "},"5":{"ha":476,"x_min":0,"x_max":0,"o":"m 61 138 b 211 3 61 68 154 3 b 442 257 372 3 442 100 b 279 450 442 350 383 450 b 203 497 239 450 203 464 b 256 688 203 535 242 651 b 338 683 276 686 307 683 b 463 760 399 683 463 696 b 426 775 463 774 436 775 b 240 789 353 778 301 789 b 106 469 158 789 106 533 b 169 376 106 431 115 376 b 225 382 189 376 206 382 b 331 242 304 382 331 319 b 206 75 331 158 301 75 b 83 179 128 75 117 179 b 61 138 64 179 61 153 z "},"6":{"ha":385,"x_min":0,"x_max":0,"o":"m 343 746 b 346 765 343 751 346 756 b 313 799 346 786 333 799 b 47 193 206 799 47 444 b 186 -3 47 76 96 -3 b 367 217 293 -3 367 86 b 242 415 367 329 313 415 b 171 401 211 415 188 410 b 289 668 203 501 249 608 b 343 746 311 701 332 721 z m 142 300 b 206 333 154 313 176 333 b 275 203 253 333 275 269 b 203 63 275 135 238 63 b 128 200 168 63 128 117 b 142 300 128 226 133 261 z "},"7":{"ha":401,"x_min":0,"x_max":0,"o":"m 86 -1 b 108 -12 93 -7 100 -12 b 132 -1 117 -12 126 -7 b 272 372 144 35 256 347 b 346 414 297 378 343 381 b 317 438 347 431 331 435 b 299 451 307 439 297 440 b 394 729 304 510 386 640 b 307 817 400 793 368 817 b 133 782 267 817 168 803 b 108 728 114 769 110 747 b 146 711 107 713 135 711 b 289 732 186 711 249 725 b 201 440 269 631 231 538 b 76 396 181 440 81 439 b 175 365 72 357 157 374 b 136 232 175 356 142 253 b 86 -1 115 156 93 74 z "},"8":{"ha":367,"x_min":0,"x_max":0,"o":"m 140 -22 b 301 211 221 -22 301 94 b 253 429 301 268 288 346 b 357 660 315 513 357 606 b 242 792 357 725 306 792 b 101 629 174 792 108 717 b 151 438 96 558 126 493 b 21 158 103 367 28 254 b 140 -22 14 64 71 -22 z m 274 636 b 219 499 269 594 249 533 b 197 635 207 547 193 597 b 243 700 201 668 224 700 b 274 636 263 700 276 669 z m 151 57 b 107 185 126 57 103 124 b 190 365 111 240 146 308 b 217 208 203 296 217 258 b 151 57 217 140 181 57 z "},"9":{"ha":407,"x_min":0,"x_max":0,"o":"m 50 31 b 83 -3 50 10 63 -3 b 376 603 190 -3 376 351 b 238 799 376 719 328 799 b 57 579 131 799 57 710 b 181 392 57 467 110 392 b 263 415 214 392 242 400 b 115 106 232 317 182 204 b 50 31 92 71 50 44 z m 289 521 b 217 463 272 493 244 463 b 149 593 168 463 149 526 b 221 733 149 661 186 733 b 296 596 256 733 296 679 b 289 521 296 575 294 549 z "},"\u0000":{"ha":0,"x_min":0,"x_max":0,"o":""},"\r":{"ha":361,"x_min":0,"x_max":0,"o":""}," ":{"ha":396,"x_min":0,"x_max":0,"o":""},"a":{"ha":569,"x_min":0,"x_max":0,"o":"m 132 208 b 310 394 214 208 268 338 b 282 218 297 331 282 265 b 375 111 282 150 315 111 b 467 154 410 111 439 125 b 696 499 526 217 696 471 b 678 513 696 506 686 513 b 408 208 628 513 463 208 b 394 239 399 208 394 217 b 500 601 394 349 500 551 b 435 639 500 625 475 639 b 340 556 368 639 367 600 b 232 613 326 592 286 613 b 33 375 114 613 33 515 b 132 208 33 276 74 208 z m 129 346 b 256 543 129 439 196 543 b 321 486 285 543 313 519 b 143 278 272 394 172 278 b 129 346 129 278 129 333 z "},"b":{"ha":611,"x_min":0,"x_max":0,"o":"m 740 504 b 731 514 742 511 738 514 b 515 438 701 514 585 474 b 408 643 510 575 469 643 b 163 431 338 643 232 551 b 178 597 164 482 169 540 b 561 1151 371 722 561 986 b 451 1260 561 1224 525 1260 b 300 1186 389 1260 339 1233 b 53 413 178 1036 53 674 b 104 236 53 299 71 236 b 178 326 146 236 167 296 b 360 546 213 426 311 546 b 424 393 396 546 422 481 b 146 154 306 338 146 261 b 263 47 146 93 196 47 b 515 367 389 47 504 143 b 740 504 628 418 731 467 z m 192 682 b 217 790 199 721 207 757 b 447 1163 263 953 392 1163 b 475 1128 463 1163 475 1147 b 192 682 475 1050 279 740 z m 418 322 b 278 131 401 213 344 131 b 215 175 243 131 215 153 b 418 322 215 219 310 271 z "},"c":{"ha":417,"x_min":0,"x_max":0,"o":"m 169 125 b 472 367 297 125 418 268 b 529 486 482 385 529 472 b 503 514 529 501 519 514 b 199 194 432 453 290 194 b 143 286 167 194 143 233 b 288 629 143 375 215 629 b 314 588 303 629 314 613 b 329 476 314 543 279 476 b 399 596 374 476 399 549 b 281 713 399 663 347 713 b 36 331 110 713 36 478 b 169 125 36 206 88 125 z "},"d":{"ha":694,"x_min":0,"x_max":0,"o":"m 161 264 b 361 504 244 264 321 431 b 357 397 358 481 357 426 b 485 153 357 244 396 153 b 794 504 581 153 794 393 b 793 513 794 508 794 508 b 781 514 790 514 790 514 b 526 263 711 514 606 263 b 474 417 471 263 474 378 b 483 606 474 472 476 539 b 851 1183 650 714 851 1031 b 743 1319 851 1258 803 1319 b 381 693 618 1319 414 993 b 276 738 343 728 310 738 b 51 431 182 738 51 571 b 161 264 51 339 101 264 z m 490 681 b 749 1208 540 889 694 1208 b 768 1160 761 1208 768 1192 b 490 681 768 1035 661 843 z m 178 431 b 294 654 178 518 244 654 b 344 606 315 654 344 619 b 200 367 344 576 229 385 b 178 431 188 367 178 399 z "},"e":{"ha":361,"x_min":0,"x_max":0,"o":"m 176 213 b 475 489 314 213 475 379 b 474 500 475 493 475 496 b 447 514 467 508 458 514 b 219 292 411 457 296 292 b 158 382 176 292 158 346 l 158 389 b 347 610 256 394 347 517 b 263 694 347 664 318 694 b 35 378 113 694 35 504 b 176 213 35 308 92 213 z m 278 594 b 164 444 278 556 207 447 b 263 625 167 482 215 625 b 278 594 278 625 278 604 z "},"f":{"ha":431,"x_min":0,"x_max":0,"o":"m 231 -175 b 350 -64 294 -175 350 -124 b 204 264 350 -3 292 128 b 543 499 308 265 543 428 b 532 514 543 508 539 514 b 167 319 490 514 279 321 l 182 486 b 335 675 219 536 263 583 b 553 1114 492 875 553 994 b 435 1254 553 1219 501 1254 b 46 286 240 1254 46 769 b 231 -175 46 -3 115 -175 z m 192 611 b 429 1143 244 910 349 1143 b 457 1104 449 1143 457 1131 b 192 611 457 1006 335 779 z m 253 -49 b 229 -92 253 -72 242 -92 b 156 175 194 -92 156 49 b 157 208 156 175 156 192 b 253 -49 183 149 253 11 z "},"g":{"ha":667,"x_min":0,"x_max":0,"o":"m 151 306 b 414 597 265 306 396 558 b 431 449 432 582 431 474 b 429 350 431 417 431 383 b 96 -18 281 265 96 169 b 221 -175 96 -99 129 -175 b 543 332 436 -175 529 164 b 782 490 585 353 782 444 b 767 514 782 499 778 514 b 549 415 717 514 597 442 b 453 736 553 486 561 736 b 371 681 424 736 374 736 b 288 750 353 724 331 750 b 40 456 149 750 40 582 b 151 306 40 392 76 306 z m 321 653 b 346 626 339 653 346 643 b 174 403 346 578 218 403 b 151 451 154 403 151 438 b 321 653 151 519 249 653 z m 179 -12 b 426 271 179 142 303 203 b 228 -92 418 185 331 -92 b 179 -12 186 -92 179 -44 z "},"h":{"ha":597,"x_min":0,"x_max":0,"o":"m 421 28 b 710 496 507 28 710 413 b 697 514 710 504 708 514 b 449 139 647 514 506 139 b 439 160 439 139 439 154 b 485 499 439 268 485 390 b 399 624 485 540 457 624 b 167 350 301 624 206 426 b 163 388 163 361 163 375 b 194 603 163 422 174 506 b 499 1111 317 692 499 903 b 411 1221 499 1165 472 1221 b 39 314 182 1221 39 493 b 100 194 39 274 43 194 b 175 226 119 194 158 206 b 361 499 243 314 321 499 b 382 428 382 499 382 442 b 344 153 382 344 344 236 b 421 28 344 100 353 28 z m 222 719 b 400 1096 268 906 336 1096 b 413 1081 410 1096 413 1089 b 222 719 413 969 297 788 z "},"i":{"ha":278,"x_min":0,"x_max":0,"o":"m 196 750 b 267 844 243 750 267 804 b 222 908 267 872 257 908 b 143 815 165 908 143 858 b 196 750 143 786 164 750 z m 142 194 b 394 493 226 194 394 424 b 378 514 394 506 392 514 b 178 292 326 514 217 292 b 156 338 157 292 156 324 b 222 631 156 507 222 569 b 168 675 222 667 201 675 b 49 376 96 675 49 494 b 142 194 49 318 63 194 z "},"j":{"ha":306,"x_min":0,"x_max":0,"o":"m 131 728 b 197 831 186 728 197 789 b 142 879 197 869 174 879 b 78 797 103 879 78 826 b 131 728 78 764 93 728 z m 60 217 b -192 -172 -47 118 -192 -15 b -89 -268 -192 -236 -150 -268 b 169 214 140 -268 151 42 b 421 500 222 263 421 438 b 406 514 421 510 415 514 b 181 313 379 514 211 343 b 188 449 185 357 188 403 b 136 611 188 481 188 611 b 78 569 103 611 85 603 b 60 217 63 493 68 313 z m -104 -137 b 49 117 -104 -68 -4 68 b -57 -199 39 42 43 -199 b -104 -137 -90 -199 -104 -168 z "},"k":{"ha":556,"x_min":0,"x_max":0,"o":"m 349 103 b 668 486 450 103 660 403 b 642 514 669 508 664 514 b 361 186 601 514 414 186 b 288 431 333 186 318 397 b 497 603 392 431 488 496 b 414 728 501 660 476 728 b 171 528 310 728 225 619 b 221 706 181 564 199 629 b 503 1138 357 801 490 985 b 403 1263 510 1218 489 1263 b 47 381 183 1263 63 549 b 92 242 44 344 39 242 b 156 357 154 242 146 326 b 192 444 165 386 175 429 b 349 103 219 432 210 103 z m 253 807 b 407 1151 306 976 369 1151 b 417 1110 422 1151 418 1121 b 253 807 408 1003 332 874 z m 238 486 b 400 644 269 532 354 644 b 425 611 417 644 426 628 b 247 482 421 563 294 482 b 238 486 243 482 239 483 z "},"l":{"ha":472,"x_min":0,"x_max":0,"o":"m 167 15 b 599 486 315 15 589 411 b 574 514 592 503 582 514 b 203 126 517 514 310 126 b 153 228 172 126 153 167 b 183 506 153 314 163 454 b 544 1064 382 606 544 864 b 440 1226 544 1163 503 1226 b 32 307 228 1226 32 676 b 167 15 32 118 79 15 z m 207 617 b 429 1129 222 764 379 1129 b 447 1074 447 1129 447 1085 b 207 617 447 936 336 718 z "},"m":{"ha":889,"x_min":0,"x_max":0,"o":"m 192 775 b 47 310 81 775 47 397 b 97 213 47 275 50 213 b 238 350 175 213 217 285 b 390 711 254 404 344 706 b 403 625 403 692 403 649 b 394 364 403 538 394 451 b 440 264 394 332 393 264 b 688 650 510 264 626 640 b 696 596 694 632 696 614 b 667 288 696 492 667 392 b 736 153 667 242 672 153 b 1001 500 796 153 993 438 b 975 514 996 508 985 514 b 774 278 956 514 811 283 b 768 289 769 281 768 286 b 792 407 768 326 783 369 b 825 638 808 482 825 560 b 739 761 825 688 800 761 b 500 486 631 761 540 569 b 511 658 501 543 511 600 b 428 822 511 714 506 822 b 178 444 313 822 215 535 b 228 717 186 536 228 624 b 192 775 228 744 229 775 z "},"n":{"ha":583,"x_min":0,"x_max":0,"o":"m 401 83 b 696 503 510 83 696 401 l 696 511 b 683 514 693 513 686 514 b 464 217 647 514 479 217 b 456 247 451 217 456 239 b 544 589 456 336 544 463 b 431 772 544 651 510 772 b 179 411 321 772 215 499 b 203 629 186 483 203 557 b 156 725 203 660 199 725 b 49 356 72 725 49 414 b 114 175 49 318 56 175 b 408 661 214 175 326 661 b 435 601 433 661 435 618 b 349 186 435 500 349 332 b 401 83 349 153 354 83 z "},"o":{"ha":514,"x_min":0,"x_max":0,"o":"m 174 111 b 408 349 278 111 368 218 b 610 496 493 358 610 443 b 593 524 610 508 603 521 b 428 435 550 489 475 447 b 431 489 431 453 431 471 b 274 750 431 626 357 750 b 129 596 206 750 129 668 b 129 586 129 593 129 589 b 22 336 61 531 22 439 b 174 111 22 206 86 111 z m 346 450 b 219 594 286 483 219 553 b 271 649 219 619 246 649 b 347 482 311 649 347 569 b 346 450 347 471 347 461 z m 331 360 b 210 194 307 271 263 194 b 138 322 172 194 138 256 b 183 472 138 375 160 442 b 331 360 222 424 278 381 z "},"p":{"ha":658,"x_min":0,"x_max":0,"o":"m 181 664 b 89 528 114 664 93 575 b -6 -221 83 457 -44 -182 b 21 -233 1 -228 10 -233 b 83 -185 56 -233 79 -217 b 175 181 93 -117 156 132 b 294 125 203 151 253 125 b 536 347 394 125 490 271 b 771 486 588 371 771 417 b 753 515 771 499 769 515 b 715 500 739 515 726 507 b 557 431 665 468 610 456 b 563 521 560 461 563 492 b 442 694 563 604 543 694 b 147 264 296 694 183 378 b 192 521 149 339 181 449 b 181 664 196 551 226 664 z m 231 292 b 419 597 238 336 383 597 b 479 499 468 597 479 535 b 457 403 479 465 471 433 b 231 292 375 383 299 347 z m 426 318 b 279 197 422 276 319 197 b 261 213 268 197 261 201 b 426 318 261 249 393 315 z "},"q":{"ha":528,"x_min":0,"x_max":0,"o":"m 283 -212 b 415 19 358 -212 415 -112 b 357 226 415 100 393 158 b 640 496 404 250 640 450 b 628 514 640 504 639 517 b 344 304 569 500 404 335 b 426 592 354 378 426 493 b 274 708 426 656 376 708 b 15 343 118 708 15 460 b 75 244 15 307 26 244 b 271 419 186 244 235 364 b 156 -6 226 279 156 133 b 283 -212 156 -122 211 -212 z m 114 332 b 275 611 119 396 194 611 b 288 589 286 611 288 596 b 114 332 288 528 158 372 z m 285 -115 b 268 -26 276 -107 268 -62 b 296 156 268 31 275 125 b 322 -3 317 133 322 35 b 285 -115 322 -56 303 -115 z "},"r":{"ha":431,"x_min":0,"x_max":0,"o":"m 185 42 b 543 500 283 42 536 406 b 517 514 544 515 528 514 b 247 171 492 475 290 171 b 239 192 238 171 239 185 b 315 431 246 269 308 349 b 186 542 324 517 256 518 b 254 675 219 572 250 632 b 168 806 258 726 228 806 b 26 625 69 806 33 706 b 219 444 15 486 118 476 b 174 324 218 421 185 351 b 124 139 151 264 129 201 b 185 42 119 89 125 42 z m 169 667 b 132 556 167 639 153 575 b 110 625 111 567 108 603 b 149 719 113 643 121 719 b 169 667 168 719 171 681 z "},"s":{"ha":500,"x_min":0,"x_max":0,"o":"m 200 308 b 33 79 106 236 33 153 b 176 -62 33 -3 96 -62 b 438 169 301 -62 438 57 b 365 336 438 246 407 297 b 599 486 458 393 553 444 b 578 513 601 500 592 515 b 307 382 526 500 415 450 b 174 518 240 428 174 458 b 300 686 174 576 233 686 b 354 628 332 686 354 667 b 338 535 354 596 338 567 b 367 503 338 517 349 503 b 446 608 417 503 446 567 b 299 756 446 704 394 756 b 58 501 157 756 58 639 b 200 308 58 394 129 347 z m 132 100 b 267 271 132 157 190 215 b 340 163 308 244 340 214 b 203 32 340 111 267 32 b 132 100 161 32 132 64 z "},"t":{"ha":379,"x_min":0,"x_max":0,"o":"m 285 1031 b 169 910 221 1031 200 983 b 118 776 151 868 135 822 b 79 776 106 776 92 776 b 17 746 60 776 17 774 b 60 711 17 724 39 711 b 97 711 72 711 85 711 b 29 328 58 585 29 451 b 183 65 29 233 53 65 b 492 486 289 65 478 390 b 465 514 494 501 481 514 b 200 151 424 514 282 151 b 147 299 144 151 147 265 b 218 713 147 418 176 574 l 251 714 b 315 714 272 714 294 714 b 426 743 336 714 426 711 b 393 779 426 764 415 779 b 315 779 367 779 342 779 l 239 778 b 289 908 254 825 272 869 b 325 993 303 939 325 974 b 285 1031 325 1015 306 1031 z "},"u":{"ha":611,"x_min":0,"x_max":0,"o":"m 149 224 b 371 449 260 224 339 351 b 336 225 360 388 336 286 b 433 97 336 161 361 97 b 567 176 488 97 533 138 b 740 494 608 225 740 439 b 725 514 740 506 739 514 b 471 194 669 514 525 194 b 457 219 458 194 457 211 b 508 582 457 344 508 463 b 433 650 508 621 482 650 b 176 321 371 650 281 321 b 150 368 157 321 150 332 b 219 638 150 450 188 535 b 188 690 225 657 217 690 b 39 389 82 690 39 489 b 149 224 39 321 51 224 z "},"v":{"ha":639,"x_min":0,"x_max":0,"o":"m 47 428 b 188 135 47 331 57 135 b 414 436 282 135 382 342 b 563 361 440 393 510 361 b 751 496 618 361 751 440 b 735 514 751 508 743 514 b 719 507 729 514 724 513 b 586 444 696 476 628 444 b 474 549 529 444 474 497 b 504 733 474 608 504 672 b 442 822 504 776 494 822 b 365 678 367 822 365 731 l 364 617 b 364 585 364 607 364 596 b 360 540 364 569 363 556 b 196 217 351 492 240 217 b 168 421 163 217 168 396 b 168 463 168 435 168 449 l 172 544 b 172 586 172 558 172 572 b 122 710 172 629 183 710 b 47 428 56 710 47 475 z "},"w":{"ha":931,"x_min":0,"x_max":0,"o":"m 464 49 b 707 425 590 49 683 310 b 842 368 739 393 799 368 b 1057 486 911 368 1011 436 b 1017 514 1057 504 1032 514 b 875 451 1004 514 932 451 b 760 556 814 451 760 496 b 760 589 760 567 760 578 l 764 656 b 764 689 764 667 764 678 b 690 799 764 739 749 799 b 615 700 632 799 615 751 b 633 514 615 638 633 575 b 496 154 633 419 565 217 b 456 310 475 163 456 286 b 465 489 456 365 465 433 b 411 611 465 536 475 611 b 189 300 350 611 246 300 b 183 314 183 300 183 311 b 236 624 183 406 236 533 b 174 692 236 668 219 692 b 104 622 131 692 115 658 b 53 357 79 542 53 442 b 154 203 53 294 75 203 b 350 389 236 203 313 338 b 464 49 331 300 363 49 z "},"x":{"ha":583,"x_min":0,"x_max":0,"o":"m 339 218 b 260 306 304 218 279 260 b 492 589 311 360 492 558 b 458 626 492 617 481 626 b 228 401 418 626 279 460 b 154 663 217 449 204 663 b 69 594 110 663 69 635 b 142 311 69 546 122 367 b -36 93 67 233 -36 125 b -4 44 -36 71 -28 44 b 185 224 11 44 104 138 b 308 126 217 174 260 126 b 625 364 443 126 561 278 b 696 486 640 385 696 463 b 669 514 696 501 686 514 b 339 218 642 514 451 218 z "},"y":{"ha":611,"x_min":0,"x_max":0,"o":"m 161 -261 b 496 278 360 -261 485 118 b 738 486 583 338 672 400 b 711 514 739 501 726 514 b 506 375 688 514 535 397 b 515 513 510 421 515 467 b 421 681 515 576 506 681 b 171 361 364 681 228 361 b 156 382 158 361 156 372 b 243 694 156 485 243 653 b 181 742 243 726 206 742 b 126 722 158 742 143 736 b 33 376 90 694 33 431 b 119 250 33 319 50 250 b 394 528 219 250 351 447 b 396 507 396 521 396 514 b 388 306 396 440 392 372 b 47 -139 240 210 47 54 b 161 -261 47 -207 90 -261 z m 168 -178 b 147 -125 147 -178 147 -137 b 379 208 147 -28 269 121 b 168 -178 372 118 278 -178 z "},"z":{"ha":556,"x_min":0,"x_max":0,"o":"m 85 500 b 111 472 85 485 96 472 b 314 636 128 472 194 636 b 336 632 321 636 329 635 l 338 626 b 183 372 331 571 183 435 b 225 326 183 351 203 326 b 294 354 233 326 263 354 b 356 288 332 354 343 315 b 75 -76 233 201 75 90 b 175 -187 75 -139 110 -187 b 465 242 368 -187 465 81 b 463 274 465 253 464 263 b 682 500 500 299 682 465 b 656 514 682 515 667 515 b 436 351 589 485 497 399 b 342 417 413 385 386 417 b 311 414 332 417 321 415 b 463 654 347 488 463 524 b 374 743 463 706 425 743 b 85 500 265 743 85 617 z m 376 208 b 197 -104 378 111 321 -104 b 174 -62 176 -104 174 -79 b 376 208 174 67 286 138 z "},"A":{"ha":1181,"x_min":0,"x_max":0,"o":"m 1144 525 b 997 494 1094 525 1046 504 b 1013 1104 993 744 1013 1004 b 968 1229 1013 1135 1015 1229 b 511 507 840 1229 679 828 b 457 508 493 508 475 508 b 313 485 407 508 358 503 b 44 165 192 438 44 304 b 161 22 44 97 85 22 b 572 411 304 22 449 200 b 875 389 678 401 751 385 b 1103 -111 889 126 943 -111 b 1160 -81 1122 -111 1160 -107 l 1158 -72 b 1158 -69 1158 -71 1158 -71 b 1133 -57 1150 -65 1142 -61 b 1001 399 1044 -10 1010 182 l 1006 400 b 1174 501 1061 407 1174 428 b 1144 525 1174 522 1163 525 z m 619 496 b 888 1046 740 717 838 951 b 871 481 888 958 865 719 b 815 479 851 479 833 479 b 619 496 750 479 685 488 z m 463 418 b 175 119 367 249 269 119 b 125 181 142 119 125 151 b 157 265 125 210 142 240 b 431 418 218 365 318 418 b 463 418 442 418 453 418 z "},"B":{"ha":847,"x_min":0,"x_max":0,"o":"m 561 500 b 204 -50 444 372 204 100 b 321 -154 204 -114 249 -154 b 781 328 519 -154 781 157 b 694 522 781 406 743 472 b 804 626 740 568 779 606 b 917 774 842 658 917 719 b 904 793 917 781 914 793 b 633 572 885 793 717 649 b 542 618 601 594 569 610 b 814 1043 669 700 814 888 b 686 1197 814 1118 769 1197 b 278 693 518 1197 304 840 b 361 1108 299 833 336 969 b 369 1161 364 1125 369 1144 b 319 1208 369 1194 351 1208 b 107 294 207 1208 107 436 b 157 172 107 257 103 172 b 203 196 179 172 189 179 b 238 333 228 228 231 293 b 658 1115 263 481 496 1115 b 689 1051 685 1115 689 1068 b 440 613 689 846 440 690 b 561 500 440 563 506 540 z m 344 -56 b 293 -10 313 -56 293 -39 b 617 443 293 78 467 285 b 643 351 632 419 643 389 b 344 -56 643 193 465 -56 z "},"C":{"ha":778,"x_min":0,"x_max":0,"o":"m 622 1208 b 142 631 372 1208 197 831 b 93 288 110 519 93 403 b 329 -111 93 139 133 -111 b 785 297 526 -111 689 151 b 896 499 813 339 890 449 b 878 514 897 507 886 514 b 364 -14 799 514 568 -14 b 231 249 243 -14 231 163 b 265 507 231 335 246 424 b 618 1111 297 644 436 1111 b 688 1008 671 1111 688 1050 b 494 803 688 844 494 883 b 563 757 494 771 538 757 b 783 1028 701 757 783 903 b 622 1208 783 1133 733 1208 z "},"D":{"ha":904,"x_min":0,"x_max":0,"o":"m 276 613 b 386 1129 300 788 356 956 b 393 1189 389 1149 393 1168 b 358 1233 393 1215 389 1233 l 349 1232 b 343 1232 347 1232 344 1232 b 151 615 258 1232 161 689 b 126 326 138 519 126 422 b 175 213 126 296 128 213 b 233 325 219 213 226 294 b 325 589 253 415 289 504 b 701 1163 385 728 600 1163 b 750 1024 744 1163 750 1053 b 708 625 750 904 738 742 b 233 22 514 467 233 207 b 356 -103 233 -54 281 -103 b 833 556 589 -103 792 340 b 847 618 838 576 842 596 b 969 706 917 665 969 688 b 940 732 969 722 956 732 b 863 703 921 732 889 718 b 886 921 876 775 886 847 b 721 1244 886 1026 868 1244 b 276 613 511 1244 326 775 z m 381 -6 b 319 65 340 -6 319 19 b 688 533 319 206 514 393 b 381 -6 638 332 526 -6 z "},"E":{"ha":889,"x_min":0,"x_max":0,"o":"m 425 544 b 40 133 217 494 40 346 b 328 -158 40 -25 169 -158 b 960 368 618 -158 833 153 b 1014 472 969 386 1014 458 b 994 500 1014 490 1006 500 b 971 489 988 500 979 497 b 356 -75 942 463 614 -75 b 185 129 267 -75 185 21 b 472 451 185 299 321 426 b 600 518 503 457 600 454 b 372 889 600 563 372 681 b 626 1156 372 1058 522 1156 b 771 1006 707 1156 771 1082 b 660 906 771 947 725 906 b 593 856 617 906 593 888 b 686 786 593 815 632 786 b 874 1010 788 786 874 888 b 632 1250 874 1149 767 1250 b 228 871 468 1250 228 1126 b 425 544 228 713 338 607 z "},"F":{"ha":681,"x_min":0,"x_max":0,"o":"m 163 165 b 217 -114 160 113 139 -110 b 293 -64 244 -115 290 -97 b 290 74 294 -22 292 18 b 339 469 290 182 308 321 b 514 471 400 469 460 469 b 657 508 543 471 656 468 b 618 546 658 533 649 544 b 408 547 560 550 467 549 b 357 547 390 547 375 547 b 543 1113 403 743 469 947 b 715 1085 596 1101 660 1088 b 951 1219 842 1078 946 1107 b 918 1274 954 1260 938 1272 b 728 1182 833 1279 878 1174 b 572 1196 676 1185 625 1190 l 468 1207 b 313 1222 418 1213 365 1218 b 72 1064 208 1228 79 1186 b 158 951 69 1004 93 954 b 219 988 178 950 218 964 b 160 1076 221 1017 157 1029 b 346 1140 163 1126 197 1151 l 407 1136 b 219 546 338 963 268 753 b 163 544 200 544 182 544 b 96 506 131 543 99 540 b 138 464 94 478 111 463 b 203 467 158 465 181 467 b 163 165 182 363 168 260 z "},"G":{"ha":872,"x_min":0,"x_max":0,"o":"m 264 101 b 435 36 333 101 388 36 b 485 89 464 36 485 58 b 299 197 485 149 401 197 b 97 -7 174 197 97 111 b 358 -210 97 -142 196 -210 b 858 647 726 -210 775 360 b 935 829 868 679 935 818 b 903 857 935 844 917 857 b 425 381 775 857 661 381 b 306 544 328 381 306 461 b 689 1139 306 707 501 1139 b 813 1031 751 1139 813 1099 b 656 874 813 951 735 874 b 619 881 643 874 631 876 l 597 889 b 561 896 586 893 574 896 b 526 865 544 896 526 883 b 644 778 526 807 594 778 b 906 1019 765 778 906 894 b 658 1218 906 1146 771 1218 b 161 543 386 1218 161 788 b 371 274 161 408 215 274 b 719 532 492 274 633 400 b 310 -122 644 310 553 -122 b 169 -12 231 -122 169 -86 b 264 101 169 54 207 101 z "},"H":{"ha":885,"x_min":0,"x_max":0,"o":"m 369 1249 b 314 1146 318 1246 310 1201 b 254 596 324 1013 296 803 b 150 593 201 596 164 594 b 111 551 122 589 111 581 b 144 508 111 532 119 508 b 231 507 158 508 189 507 b 118 99 199 351 157 204 b 53 -6 106 64 85 19 b -6 -65 31 -24 -4 -24 b 56 -97 -7 -85 29 -97 b 376 506 239 -100 346 369 b 626 503 457 504 547 503 b 596 265 611 422 601 342 b 765 -143 583 85 642 -133 b 814 -118 786 -144 813 -144 b 807 -104 814 -112 811 -108 b 731 274 733 -32 718 100 b 764 504 735 343 747 421 b 835 510 804 506 831 507 b 868 560 860 526 868 531 b 842 590 868 581 865 590 b 783 590 829 590 808 590 b 903 951 811 707 853 832 b 979 1153 917 983 975 1106 b 922 1215 982 1190 951 1213 b 753 972 865 1221 786 1063 b 644 593 714 869 675 735 b 396 596 568 594 478 596 b 454 1174 444 838 467 1069 b 369 1249 449 1222 433 1251 z "},"I":{"ha":553,"x_min":0,"x_max":0,"o":"m 28 -67 b 96 -110 28 -104 65 -110 b 385 -99 192 -110 289 -99 b 504 -51 426 -99 496 -107 b 504 -42 504 -47 504 -46 b 397 -17 504 -12 414 -17 b 379 -17 390 -17 385 -17 l 343 -19 b 325 -19 338 -19 332 -19 b 557 1140 325 279 457 863 b 589 1143 568 1143 578 1143 b 731 1188 633 1143 731 1131 b 669 1224 731 1229 703 1224 l 515 1224 b 296 1219 432 1224 347 1226 b 218 1179 271 1217 218 1215 b 265 1135 218 1149 235 1135 l 417 1138 b 193 -15 299 768 218 369 b 28 -67 156 -18 28 -12 z "},"J":{"ha":692,"x_min":0,"x_max":0,"o":"m 503 568 b -11 -14 390 479 -11 238 b 153 -167 -11 -111 49 -167 b 631 542 431 -167 560 235 b 774 633 692 582 740 614 b 749 681 818 658 778 689 b 651 635 718 671 686 656 b 671 729 658 669 665 700 b 728 1028 692 828 713 928 b 753 1167 735 1074 753 1121 b 701 1261 753 1204 742 1261 b 661 1247 685 1261 668 1251 b 167 833 553 1175 167 957 b 207 806 167 813 189 806 b 267 861 242 806 256 833 b 615 1125 289 919 544 1072 b 563 847 603 1032 579 940 b 503 568 550 785 531 682 z m 483 481 b 150 -83 410 210 299 -83 b 74 1 101 -83 74 -53 b 483 481 74 181 376 404 z "},"K":{"ha":733,"x_min":0,"x_max":0,"o":"m 29 -53 b 40 -164 19 -97 -1 -164 b 149 -42 67 -164 114 -140 b 219 251 171 19 196 138 b 271 396 225 275 236 396 b 431 263 313 396 361 346 b 865 -275 557 110 571 -275 b 971 -185 946 -275 971 -240 b 943 -157 971 -164 960 -157 b 844 -174 917 -157 875 -174 b 517 371 664 -174 671 164 b 358 460 476 425 406 457 b 835 1140 538 553 835 935 b 772 1207 835 1185 819 1207 b 713 1103 740 1207 726 1147 b 272 510 642 871 392 611 b 271 519 272 513 271 515 b 364 965 290 640 326 847 b 404 1131 379 1015 404 1079 b 319 1188 404 1181 361 1188 b 258 1132 283 1188 269 1164 b 69 126 181 903 136 483 b 29 -53 60 71 40 -1 z "},"L":{"ha":767,"x_min":0,"x_max":0,"o":"m 296 -40 b 556 -136 375 -75 436 -136 b 804 -22 654 -136 739 -96 b 868 89 831 7 868 47 b 854 108 868 96 865 108 b 829 97 847 108 840 106 b 572 -33 783 65 697 -33 b 342 58 494 -33 426 22 b 419 439 376 161 400 301 b 807 975 635 536 807 707 b 618 1244 807 1086 753 1244 b 335 833 443 1244 361 967 b 296 556 317 742 307 649 b 286 471 294 539 292 508 b 149 422 240 451 192 435 b 106 390 135 418 106 413 b 158 358 106 360 139 354 b 274 385 197 365 235 374 b 211 89 260 292 239 181 b -24 -51 129 89 -24 53 b 94 -165 -24 -111 35 -165 b 289 -51 163 -165 250 -106 z m 433 540 b 479 851 450 663 464 776 b 618 1147 490 904 540 1147 b 703 946 679 1147 703 990 b 433 540 703 747 572 619 z m 63 -60 b 169 -19 63 -31 131 -22 b 93 -85 147 -60 122 -85 b 63 -60 85 -85 63 -78 z "},"M":{"ha":1222,"x_min":0,"x_max":0,"o":"m 979 819 b 835 108 979 590 835 347 b 994 -96 835 -31 919 -96 b 1367 482 1194 -96 1329 357 b 1340 510 1374 503 1364 510 b 1311 486 1321 510 1318 504 b 1031 0 1249 336 1114 0 b 972 99 1010 0 972 19 b 1114 790 972 331 1114 515 b 1001 967 1114 861 1100 967 b 649 628 871 967 715 771 b 719 993 671 718 719 889 b 618 1153 719 1089 679 1153 b 186 499 451 1153 250 635 b 314 1050 215 615 314 960 b 257 1142 314 1099 288 1142 b 128 892 214 1142 167 1051 b 38 433 104 799 64 596 b 1 171 15 296 1 232 b 44 128 1 133 19 128 b 118 156 75 128 97 136 b 208 400 175 210 179 315 b 564 1008 267 568 510 1008 b 576 981 576 1008 576 985 b 454 328 576 819 454 525 b 489 288 454 328 454 288 b 540 307 504 288 524 294 b 600 414 574 332 581 365 b 954 864 681 622 878 864 b 979 819 981 864 979 840 z "},"N":{"ha":972,"x_min":0,"x_max":0,"o":"m 783 932 b 678 447 783 793 715 610 b 603 3 644 301 603 154 b 721 -181 603 -78 618 -181 b 1085 486 808 -181 1085 413 b 1061 518 1085 500 1078 518 b 965 336 1029 518 979 369 b 746 -56 933 263 794 -10 b 724 1 722 -46 724 -19 b 801 368 724 128 769 247 b 917 893 844 532 917 715 b 736 1218 917 1078 839 1218 b 264 319 489 1218 313 496 b 390 1067 301 565 322 826 b 394 1099 393 1076 394 1088 b 338 1181 397 1142 388 1178 b 257 990 310 1182 264 1018 b 121 264 199 756 144 504 b 101 29 114 186 101 108 b 149 -42 101 -7 101 -42 b 221 -6 185 -42 207 -37 b 700 1107 315 211 535 1107 b 783 932 749 1107 783 1033 z "},"O":{"ha":903,"x_min":0,"x_max":0,"o":"m 518 1219 b 103 792 285 1224 106 1039 b 153 571 101 708 119 635 b 76 229 107 456 78 338 b 338 -133 72 15 178 -131 b 771 338 524 -136 688 58 b 968 442 847 363 915 401 b 1015 493 996 463 1015 483 b 1003 514 1015 497 1010 507 b 796 433 932 485 863 454 b 829 736 817 528 828 631 b 746 1113 832 908 804 1033 b 774 1122 756 1117 764 1119 b 831 1168 811 1133 831 1149 b 779 1206 831 1190 808 1206 b 707 1190 763 1206 736 1200 l 675 1178 b 518 1219 632 1204 579 1218 z m 211 697 b 199 794 203 732 199 765 b 532 1136 199 988 371 1139 b 583 1131 550 1136 568 1135 b 211 697 439 1039 306 876 z m 276 554 b 679 1074 360 758 500 946 b 749 831 725 1022 749 940 l 749 806 b 690 407 749 672 726 533 b 608 401 663 403 635 401 b 276 554 442 406 338 471 z m 240 454 b 626 314 335 365 471 315 b 660 315 638 314 649 314 b 354 -51 582 103 465 -54 b 201 207 264 -49 200 60 b 240 454 203 288 215 372 z "},"P":{"ha":826,"x_min":0,"x_max":0,"o":"m 249 363 b 408 286 282 315 339 286 b 858 922 681 286 858 610 b 858 928 858 924 858 926 b 960 999 929 963 960 981 b 926 1019 960 1017 947 1022 b 856 1004 906 1015 886 1013 b 668 1226 843 1143 792 1226 b 317 863 481 1226 379 1006 b 388 1172 349 975 371 1082 b 317 1213 392 1199 336 1213 b 211 958 269 1213 221 1003 b 65 126 211 958 76 226 b 40 -97 57 51 40 -22 b 86 -143 40 -129 54 -143 b 126 -125 101 -143 115 -135 b 249 363 157 -97 200 128 z m 328 699 b 349 768 335 724 342 746 b 638 1153 382 867 513 1153 b 739 961 718 1153 735 1043 b 328 699 604 903 436 813 z m 438 369 b 283 492 361 369 283 414 b 740 881 283 632 544 786 b 438 369 733 639 619 369 z "},"Q":{"ha":917,"x_min":0,"x_max":0,"o":"m 572 -72 b 1011 -240 714 -175 869 -240 b 1054 -200 1038 -240 1054 -228 b 961 -158 1054 -183 978 -164 b 650 -4 867 -129 756 -75 b 935 746 835 190 935 532 b 903 960 935 815 925 892 b 1003 1036 938 979 1003 1015 b 946 1083 1003 1067 972 1083 b 860 1053 931 1083 896 1069 b 621 1188 811 1132 735 1188 b 115 657 331 1188 115 939 b 149 468 115 596 126 532 b 39 132 81 363 39 249 b 340 -153 39 -50 164 -153 b 572 -72 426 -153 504 -122 z m 225 604 b 613 1089 225 811 379 1089 b 768 1007 682 1089 732 1056 b 743 993 757 1001 749 996 b 226 574 578 900 372 751 b 225 604 225 583 225 594 z m 565 58 b 264 424 435 161 321 288 b 818 906 388 628 619 776 b 838 769 832 860 838 813 b 565 58 838 542 708 226 z m 494 -11 b 342 -75 447 -50 396 -75 b 174 113 236 -75 174 14 b 214 325 174 189 188 260 b 494 -11 282 203 382 85 z "},"R":{"ha":813,"x_min":0,"x_max":0,"o":"m 246 438 b 379 328 313 425 350 396 b 747 -161 446 174 536 -161 b 875 -94 783 -161 875 -146 b 858 -78 875 -82 871 -78 b 793 -83 836 -78 815 -83 b 553 261 685 -83 590 179 b 407 440 525 319 461 400 b 861 918 639 464 861 681 b 660 1181 861 1043 804 1181 b 276 782 472 1181 338 932 l 344 1072 b 356 1115 347 1086 356 1100 b 281 1190 357 1167 329 1189 b 265 1189 275 1190 271 1190 b 251 1179 261 1186 254 1183 b 44 32 189 1089 50 186 b 93 -4 43 10 65 -3 b 183 103 160 -7 167 35 b 213 272 197 158 203 217 b 246 438 222 328 233 382 z m 636 1090 b 724 932 713 1090 724 988 b 331 525 724 706 563 518 b 268 531 310 525 289 528 b 325 711 285 592 304 651 b 636 1090 363 814 513 1090 z "},"S":{"ha":781,"x_min":0,"x_max":0,"o":"m 376 499 b 19 40 189 367 19 200 b 269 -176 19 -85 122 -176 b 724 249 493 -176 724 32 b 568 517 724 368 653 447 b 878 739 732 621 878 700 b 860 753 878 750 869 753 b 492 575 828 753 665 682 b 283 844 386 653 283 726 b 572 1108 283 978 443 1108 b 703 1001 669 1108 703 1057 b 486 824 703 867 486 889 b 538 782 486 786 506 782 b 794 1010 654 782 794 846 b 575 1199 794 1136 690 1199 b 144 833 360 1199 144 1058 b 376 499 144 686 263 589 z m 583 229 b 240 -78 583 78 419 -78 b 125 25 160 -78 125 -46 b 451 439 125 175 282 319 b 583 229 525 376 583 311 z "},"T":{"ha":583,"x_min":0,"x_max":0,"o":"m 551 1268 b 482 1242 524 1269 501 1261 b 457 1189 478 1238 468 1215 b 250 1215 389 1200 321 1215 b 28 1047 140 1215 28 1176 b 101 979 28 997 54 979 b 128 1000 115 979 128 983 b 113 1061 128 1022 113 1039 b 217 1136 113 1103 181 1136 b 428 1118 288 1136 357 1126 b 415 1086 422 1103 418 1092 b 181 94 307 810 192 389 b 221 -92 179 61 174 -89 b 240 -83 228 -92 236 -89 b 324 322 253 -67 313 271 b 442 756 357 468 396 613 b 568 1104 451 783 521 974 b 675 1097 603 1100 639 1097 b 913 1228 776 1097 913 1090 b 844 1314 913 1268 890 1314 b 796 1274 821 1314 796 1300 b 839 1214 796 1242 839 1247 b 653 1175 839 1168 697 1175 l 593 1175 b 611 1228 604 1206 611 1225 b 551 1268 613 1260 575 1267 z "},"U":{"ha":886,"x_min":0,"x_max":0,"o":"m 711 -139 b 735 106 764 -139 735 17 b 863 968 735 339 793 732 b 907 1121 876 1017 907 1069 b 831 1181 907 1169 872 1181 b 668 750 757 1181 688 818 b 332 56 638 643 449 56 b 236 253 242 56 236 189 b 240 347 236 285 238 315 b 396 1124 258 571 353 890 b 326 1199 406 1174 371 1194 b 254 1040 300 1201 260 1064 b 100 214 193 807 100 454 b 279 -69 100 93 124 -69 b 650 472 454 -69 596 301 b 610 90 619 361 610 206 b 711 -139 610 24 631 -139 z "},"V":{"ha":750,"x_min":0,"x_max":0,"o":"m 238 1239 b 151 1088 163 1242 153 1143 b 289 -96 144 901 174 18 b 325 -111 300 -107 310 -111 b 415 -86 358 -112 388 -107 b 476 64 429 -76 468 40 b 863 1017 578 364 711 738 b 958 1197 885 1057 957 1157 b 929 1217 960 1214 942 1217 b 860 1186 900 1218 881 1207 b 365 22 701 1028 418 257 b 289 913 310 285 299 613 b 281 1085 288 969 283 1026 b 279 1192 279 1119 282 1157 b 238 1239 276 1215 265 1238 z "},"W":{"ha":1118,"x_min":0,"x_max":0,"o":"m 597 681 b 753 -108 585 543 556 -108 b 1138 1010 951 -108 1138 639 b 1132 1175 1138 1042 1143 1114 b 1093 1228 1128 1199 1114 1228 b 1046 1172 1079 1228 1046 1213 b 1040 953 1046 1111 1044 1036 b 769 0 1021 619 836 0 b 732 740 672 0 726 657 b 738 979 733 794 751 936 b 696 1014 731 997 718 1014 b 639 982 672 1014 653 1000 b 332 260 554 876 432 429 b 292 201 325 249 306 201 b 288 801 210 201 261 646 b 376 1104 300 875 328 992 b 329 1226 397 1151 407 1226 b 131 718 208 1226 144 810 b 269 69 110 583 63 69 b 597 681 386 69 571 599 z "},"X":{"ha":793,"x_min":0,"x_max":0,"o":"m 343 1221 b 260 1022 267 1221 260 1075 b 392 447 260 853 310 644 b 11 115 332 376 111 115 b -33 88 -8 115 -33 114 b 6 46 -33 65 -18 46 b 433 351 128 46 285 179 b 796 -143 529 149 657 -33 b 846 -157 807 -151 826 -157 b 897 -122 872 -157 897 -147 b 792 -14 897 -96 839 -64 b 514 450 700 83 593 261 b 882 1015 679 660 824 897 b 924 1126 899 1050 924 1088 b 886 1161 924 1140 900 1161 b 839 1118 863 1161 849 1135 b 719 910 799 1049 763 978 b 474 551 644 788 563 667 b 399 917 428 681 399 808 b 422 1135 399 990 401 1060 b 343 1221 435 1182 394 1221 z "},"Y":{"ha":960,"x_min":0,"x_max":0,"o":"m 161 -17 b 342 -193 158 -122 238 -193 b 772 217 525 -193 699 71 b 878 543 813 297 850 417 b 963 571 908 554 939 564 b 997 611 983 576 997 586 b 961 638 997 633 981 638 b 896 628 943 638 921 635 b 938 999 922 765 938 901 b 836 1186 938 1075 938 1186 b 757 1144 799 1186 776 1178 b 364 608 701 1050 460 608 b 336 672 344 608 336 626 b 486 1118 336 822 422 969 b 421 1186 504 1161 458 1186 b 193 689 328 1186 193 811 b 321 486 193 600 207 486 b 782 1014 525 486 685 865 l 782 992 b 742 665 782 883 760 774 b 721 557 736 632 729 596 b 161 -17 476 432 167 185 z m 697 457 b 426 -54 644 263 557 51 b 317 -107 400 -75 350 -107 b 265 3 275 -107 265 -26 b 697 457 268 171 538 363 z "},"Z":{"ha":921,"x_min":0,"x_max":0,"o":"m 826 1064 b 63 -44 826 857 63 -43 b 115 -119 63 -79 75 -110 b 414 -146 171 -132 288 -146 b 868 56 628 -146 868 -106 b 854 93 868 65 867 93 b 754 28 836 93 801 53 b 371 -39 672 -15 499 -39 b 226 -19 304 -39 249 -32 b 989 1101 396 131 989 914 b 899 1161 989 1154 940 1161 l 732 1161 b 229 985 551 1161 229 1196 b 339 879 229 913 281 879 b 415 931 382 879 415 901 b 386 954 415 947 406 954 b 318 993 356 954 318 964 b 556 1078 318 1061 432 1078 b 826 1064 664 1078 778 1064 z "},"?":{"ha":754,"x_min":0,"x_max":0,"o":"m 603 872 b 261 274 603 649 310 581 b 260 251 260 267 260 258 b 294 186 260 239 263 186 b 369 268 318 186 354 206 b 732 876 435 538 732 618 b 456 1151 732 1035 628 1151 b 140 849 269 1151 140 1019 b 275 681 140 742 189 681 b 343 714 317 681 343 694 b 263 867 343 751 263 758 b 446 1029 263 974 358 1029 b 603 872 542 1029 603 975 z m 304 111 b 242 51 261 111 242 97 b 282 6 242 28 258 6 b 354 68 319 6 354 28 b 304 111 354 93 328 111 z "},"@":{"ha":1139,"x_min":0,"x_max":0,"o":"m 719 928 b 138 344 383 928 138 658 b 425 0 138 183 249 0 b 654 83 471 0 654 21 b 619 101 654 103 632 101 b 488 83 575 101 532 83 b 249 346 317 83 249 186 b 713 844 249 583 446 844 b 965 551 890 844 965 721 b 826 301 965 456 907 301 b 794 525 788 301 767 410 b 676 653 814 606 767 653 b 396 372 514 653 396 494 b 500 267 396 318 425 267 b 697 438 582 267 664 376 b 813 222 683 347 700 222 b 1078 579 990 222 1078 436 b 719 928 1078 807 939 928 z m 672 513 b 525 335 668 465 567 335 b 503 389 508 335 501 367 b 649 556 506 439 579 556 b 672 513 672 556 674 532 z "},"=":{"ha":903,"x_min":0,"x_max":0,"o":"m 668 504 b 771 546 692 504 771 507 b 500 596 771 618 550 596 l 310 596 b 289 549 300 583 289 564 b 303 513 289 539 289 514 b 425 489 326 488 393 489 b 668 504 507 489 586 504 z m 301 292 b 682 315 431 292 553 297 b 708 346 701 318 707 328 b 661 392 713 378 686 388 b 606 393 643 394 624 394 b 315 386 507 388 410 397 b 263 319 272 381 263 365 b 301 292 263 292 278 292 z "},"<":{"ha":654,"x_min":0,"x_max":0,"o":"m 501 194 b 258 444 501 226 293 413 b 538 607 347 506 444 553 b 600 686 567 624 600 649 b 547 736 600 722 582 736 b 182 513 521 736 219 543 b 132 442 158 493 132 464 b 431 181 132 408 399 197 b 475 167 444 174 460 167 b 501 194 490 167 501 179 z "},">":{"ha":761,"x_min":0,"x_max":0,"o":"m 156 186 b 179 158 154 169 161 158 b 603 351 224 158 561 313 b 644 417 622 368 643 390 b 618 471 646 436 631 458 b 518 556 590 503 551 531 b 319 699 450 604 381 699 b 244 643 288 699 247 679 b 293 560 242 611 268 575 b 506 417 378 508 428 478 b 156 186 474 389 158 214 z "},"[":{"ha":542,"x_min":0,"x_max":0,"o":"m 392 1306 b 101 79 229 1306 101 276 b 278 -150 101 -81 139 -150 b 468 -64 332 -150 468 -139 b 400 -44 468 -42 417 -44 b 228 43 303 -44 228 -39 b 422 1181 228 343 306 992 b 542 1181 456 1182 515 1181 b 603 1231 583 1181 603 1189 b 392 1306 603 1274 507 1306 z "},"\\":{"ha":585,"x_min":0,"x_max":0,"o":"m 157 1250 l 164 1190 b 410 33 172 1119 374 168 b 482 -87 421 -11 424 -87 b 506 28 525 -87 513 -1 b 314 933 465 193 360 738 b 239 1232 290 1033 269 1136 b 214 1278 236 1239 222 1278 b 157 1250 179 1278 175 1282 z "},"]":{"ha":569,"x_min":0,"x_max":0,"o":"m 47 -86 b 93 -140 46 -107 71 -137 b 190 -160 108 -143 167 -158 b 431 185 336 -169 404 19 b 483 489 442 258 472 414 b 553 1096 511 690 540 894 b 551 1208 554 1114 561 1193 b 340 1249 526 1250 385 1246 b 278 1211 303 1251 283 1244 l 276 1203 b 424 1146 267 1147 379 1149 l 444 1144 b 364 524 413 939 394 731 b 307 165 338 346 322 258 b 194 -49 293 74 283 -12 b 160 -54 183 -53 172 -54 b 90 -49 135 -54 110 -49 b 47 -86 76 -49 49 -60 z "},"{":{"ha":589,"x_min":0,"x_max":0,"o":"m 390 -144 b 410 -121 403 -143 410 -132 b 296 128 410 -68 296 -14 b 313 378 296 193 313 311 b 260 542 313 438 293 492 b 299 560 272 550 285 554 b 429 731 372 589 417 650 b 461 1142 447 846 440 1025 b 469 1150 463 1147 465 1150 b 528 1131 483 1150 510 1131 b 565 1185 564 1131 565 1156 b 463 1267 565 1236 508 1267 b 357 1186 411 1267 371 1235 b 292 707 319 1061 347 824 b 267 671 288 697 276 675 b 154 565 214 646 154 644 b 204 389 154 501 204 456 b 190 143 204 325 190 208 b 261 -79 190 64 208 -17 b 390 -144 297 -121 339 -132 z "},"|":{"ha":583,"x_min":0,"x_max":0,"o":"m 207 19 b 261 -136 208 -10 217 -137 b 282 -93 282 -136 281 -106 b 303 131 286 -18 294 57 b 422 833 332 364 381 603 b 471 1214 442 943 474 1106 b 403 1311 469 1254 453 1314 b 381 1274 394 1311 383 1281 b 328 1018 354 1190 342 1103 b 207 19 275 708 197 332 z "},"}":{"ha":681,"x_min":0,"x_max":0,"o":"m 128 -81 b 271 -56 179 -83 224 -85 b 431 314 369 8 415 203 b 454 421 436 349 440 386 b 554 600 482 494 549 496 b 456 688 558 679 490 653 b 442 781 440 703 440 761 b 507 1168 447 901 500 1049 b 399 1292 511 1238 468 1288 b 303 1204 342 1294 306 1260 b 351 1154 301 1168 317 1156 b 394 1167 365 1153 381 1161 b 315 776 361 1063 321 875 b 407 593 311 700 351 640 b 439 564 418 585 429 575 b 278 104 286 440 350 246 b 114 -56 247 43 117 -25 b 128 -81 114 -65 118 -75 z "},"~":{"ha":806,"x_min":0,"x_max":0,"o":"m 221 458 b 283 389 218 421 244 389 b 375 472 332 389 290 472 b 536 417 417 472 461 417 b 756 622 606 417 750 558 b 738 653 757 633 751 653 b 529 500 681 653 626 500 b 338 553 460 500 407 553 b 221 458 283 553 226 517 z "},"¢":{"ha":542,"x_min":0,"x_max":0,"o":"m 228 181 b 186 -53 210 107 186 22 b 221 -114 186 -74 192 -114 b 300 185 264 -114 293 140 b 524 342 340 196 524 300 b 483 376 524 364 504 376 b 324 303 436 376 376 308 b 382 535 318 318 375 506 b 417 543 393 542 406 543 b 474 586 446 543 474 536 b 422 658 474 621 451 646 b 457 833 436 715 457 774 b 421 897 457 856 451 897 b 340 671 389 897 347 704 b 69 351 204 649 69 517 b 228 181 69 253 149 207 z m 297 525 b 242 288 294 500 250 297 b 181 364 211 297 181 331 b 297 525 181 411 242 524 z "},"£":{"ha":701,"x_min":0,"x_max":0,"o":"m 92 11 b 197 47 124 11 168 32 b 385 -11 251 19 321 -11 b 622 144 517 -11 617 72 b 592 178 624 165 613 178 b 418 74 569 178 557 74 b 261 125 392 74 257 86 b 315 347 264 156 294 310 b 482 390 338 347 481 365 b 442 422 485 418 465 422 b 343 410 408 422 376 410 b 331 413 339 410 335 411 b 415 701 333 483 358 701 b 506 522 499 701 447 522 b 569 565 528 522 568 540 b 404 796 578 661 546 796 b 217 399 244 796 250 485 b 67 353 185 389 71 394 b 81 319 65 340 64 319 b 199 333 117 319 163 326 b 151 140 204 332 168 158 b 44 75 106 140 49 133 b 92 11 42 46 60 11 z "},"!":{"ha":436,"x_min":0,"x_max":0,"o":"m 181 210 b 204 194 183 200 193 194 b 236 207 215 194 228 200 b 436 992 288 256 424 894 b 375 1064 442 1035 418 1063 b 190 390 307 1064 203 488 b 181 210 183 331 171 244 z m 129 58 b 169 6 125 32 143 6 b 242 68 210 4 242 32 b 192 111 242 86 224 111 b 129 58 150 111 135 103 z "},"-":{"ha":610,"x_min":0,"x_max":0,"o":"m 225 393 b 550 450 365 393 550 410 b 543 468 550 456 546 465 b 383 483 532 479 408 483 b 161 433 340 483 167 496 b 225 393 158 400 200 393 z "},"+":{"ha":646,"x_min":0,"x_max":0,"o":"m 306 186 b 400 372 382 179 389 324 b 578 422 449 375 578 364 b 515 444 578 438 526 444 l 414 450 b 435 568 422 492 432 525 b 388 653 439 611 439 649 b 297 458 315 658 307 508 l 290 458 b 132 408 246 458 132 479 b 228 381 132 379 207 382 l 281 376 b 306 186 275 344 256 190 z "},"*":{"ha":722,"x_min":0,"x_max":0,"o":"m 426 876 b 551 711 450 839 504 711 b 588 739 564 711 588 724 b 514 904 588 765 513 879 b 735 967 544 904 735 938 b 735 982 735 972 733 976 b 714 985 728 985 721 985 b 526 981 657 985 593 981 b 625 1108 544 1014 625 1076 b 589 1146 625 1124 604 1146 b 456 1014 556 1146 478 1042 b 360 1143 422 1047 422 1143 b 335 1111 340 1143 335 1128 b 386 972 335 1063 365 1017 b 325 967 367 967 346 967 b 214 929 279 967 214 978 b 272 897 214 899 256 897 b 361 897 294 897 344 903 b 271 751 332 865 271 794 b 283 735 271 742 274 735 b 426 876 321 735 400 846 z "},"^":{"ha":515,"x_min":0,"x_max":0,"o":"m 183 700 b 367 944 231 700 333 904 b 431 707 386 915 375 781 b 454 688 436 700 443 688 b 482 733 481 688 482 714 b 458 932 482 793 464 872 b 407 1078 454 972 449 1078 b 144 749 344 1078 144 808 b 183 700 144 722 154 700 z "},"/":{"ha":583,"x_min":0,"x_max":0,"o":"m 649 1169 b 546 1047 600 1169 564 1092 b 111 -96 489 911 111 -35 b 150 -133 111 -125 125 -133 b 310 206 175 -133 292 160 b 617 944 417 471 504 685 b 686 1132 632 979 686 1089 b 649 1169 686 1147 675 1169 z "},"#":{"ha":953,"x_min":0,"x_max":0,"o":"m 540 129 b 572 67 542 113 549 64 b 685 319 608 69 651 196 b 843 375 733 324 843 339 b 710 413 842 406 772 413 b 746 542 725 472 739 522 b 751 558 746 547 749 553 b 904 604 778 560 906 564 b 778 650 904 643 826 650 b 828 900 804 742 832 854 b 778 938 825 924 803 938 b 665 646 746 938 686 707 b 504 647 606 646 556 647 b 539 850 526 733 543 810 b 497 907 538 874 529 911 b 386 647 471 906 424 767 b 367 647 381 647 372 647 b 182 581 317 646 179 656 b 311 540 183 532 281 539 b 322 540 315 540 318 540 l 343 542 b 353 542 346 542 350 542 b 336 485 344 515 339 496 b 311 403 326 456 321 429 b 293 403 306 401 300 403 b 215 406 267 401 242 407 b 151 351 182 406 150 390 b 283 304 151 314 217 306 b 238 79 263 217 236 101 b 293 39 240 50 264 36 b 389 288 319 42 378 253 l 397 306 b 414 310 407 308 413 310 b 478 313 436 311 458 311 l 569 314 b 540 129 550 233 538 161 z m 429 403 b 474 546 443 446 458 496 b 635 553 528 546 582 547 b 593 410 621 510 606 458 b 583 408 590 408 586 408 l 506 406 b 429 403 481 403 454 403 z "},"$":{"ha":594,"x_min":0,"x_max":0,"o":"m 235 -125 b 278 15 261 -125 250 -17 b 494 215 301 43 494 60 b 351 432 494 297 399 372 b 424 676 372 514 392 597 b 426 676 425 676 425 676 l 431 678 b 433 678 432 678 433 678 b 531 596 492 678 508 596 b 585 682 557 596 585 660 b 454 776 585 724 489 769 b 493 914 465 801 493 889 b 457 939 493 935 472 939 b 364 783 385 939 379 836 b 132 563 247 774 132 688 b 253 364 132 474 186 415 l 200 92 l 185 92 b 100 106 156 92 126 94 b 81 79 86 106 81 90 b 193 18 81 29 158 26 b 189 -53 192 -6 189 -29 b 235 -125 189 -85 194 -125 z m 279 478 b 240 553 260 493 240 528 b 336 681 240 599 285 679 b 279 478 311 615 300 544 z m 281 97 b 321 299 288 165 306 232 b 375 190 347 282 375 221 b 281 97 375 131 328 115 z "},"&":{"ha":717,"x_min":0,"x_max":0,"o":"m 485 -101 b 513 -75 493 -101 513 -85 b 425 126 508 -12 444 53 b 663 338 465 156 665 271 b 628 364 661 353 642 374 b 390 225 576 329 408 225 l 388 225 b 354 363 375 269 360 317 b 593 872 500 515 593 650 b 475 1031 590 944 569 1031 b 207 628 311 1031 210 783 b 229 375 206 563 211 454 b 47 124 163 317 44 207 b 160 44 50 61 107 44 b 317 86 210 44 268 74 b 485 -101 339 28 414 -101 z m 335 471 b 325 600 325 500 324 569 b 460 931 328 706 369 931 b 482 863 476 931 482 875 b 335 471 486 767 419 550 z m 289 174 b 175 132 260 163 203 132 b 151 153 161 132 151 139 b 251 281 150 171 219 251 b 289 174 261 236 275 210 z "},"€":{"ha":660,"x_min":0,"x_max":0,"o":"m 314 22 b 603 142 449 22 600 93 b 560 161 603 154 593 168 b 343 94 514 150 418 94 b 204 225 267 94 200 161 l 204 232 b 479 276 253 239 451 253 b 413 304 482 293 460 303 b 208 307 364 307 286 303 b 236 406 210 339 224 386 b 456 417 314 415 408 411 b 564 449 514 424 563 428 b 515 469 565 460 547 468 b 500 471 510 469 504 469 l 467 471 b 451 472 463 472 457 472 l 326 476 b 263 479 306 478 285 478 b 521 701 307 581 453 704 b 553 671 543 700 554 688 b 535 597 553 649 536 625 b 551 574 533 581 539 575 b 646 699 590 572 643 642 b 525 779 647 743 600 775 b 140 483 390 786 244 675 b 50 438 100 485 51 465 b 88 403 50 415 67 403 l 104 403 b 90 318 96 374 92 349 b 90 296 90 318 90 307 b 33 260 65 292 35 289 b 69 228 32 242 46 229 b 90 228 78 228 83 229 b 106 183 97 210 103 190 b 314 22 138 90 219 21 z "},"(":{"ha":513,"x_min":0,"x_max":0,"o":"m 124 349 b 389 -132 124 146 178 -132 b 496 -67 422 -132 496 -110 b 318 4 496 -8 383 -50 b 219 315 257 54 219 174 b 485 1100 219 564 333 899 b 550 1221 511 1136 550 1172 b 490 1271 550 1260 521 1271 b 419 1211 464 1271 435 1229 b 124 349 243 992 124 650 z "},")":{"ha":504,"x_min":0,"x_max":0,"o":"m 540 804 b 432 1217 540 961 515 1124 b 356 1260 407 1244 378 1260 b 322 1225 336 1260 322 1249 b 367 1119 322 1201 335 1167 b 433 835 403 1068 433 971 b 140 35 433 547 319 267 b 75 -82 113 0 75 -33 b 135 -132 75 -121 104 -132 b 206 -72 161 -132 190 -90 b 540 804 382 132 540 417 z "},"μ":{"ha":819,"x_min":0,"x_max":0,"o":"m 14 -160 b 335 390 144 -160 318 383 b 403 251 357 369 368 251 b 632 521 476 251 563 472 b 601 414 629 485 615 449 b 510 78 557 306 519 192 b 539 -18 507 50 500 -18 b 571 11 554 -18 564 -1 b 653 254 606 74 629 183 b 774 618 683 344 767 533 b 722 710 778 660 775 710 b 433 363 600 710 464 363 b 343 617 396 363 438 617 b 326 611 338 617 332 615 b 214 299 313 599 228 340 b 114 75 185 222 151 147 b 10 -94 82 17 40 -36 b -6 -136 3 -107 -4 -122 b 14 -160 -6 -147 3 -160 z "},"%":{"ha":858,"x_min":0,"x_max":0,"o":"m 235 478 b 425 713 335 478 425 617 b 318 829 425 769 378 829 b 132 593 224 829 132 703 b 235 478 132 528 169 478 z m 92 -12 b 115 -43 86 -35 106 -43 b 151 -25 129 -43 142 -33 b 246 85 189 7 215 47 b 767 746 318 171 767 692 b 729 800 767 767 754 800 b 189 140 656 800 264 251 b 92 -12 164 103 97 13 z m 250 557 b 214 608 231 557 214 568 b 311 756 214 681 254 756 b 339 708 329 756 339 722 b 250 557 339 658 308 557 z m 550 -64 b 743 163 650 -64 743 67 b 636 279 743 219 696 279 b 453 56 529 279 453 140 b 550 -64 453 -10 483 -64 z m 563 11 b 532 60 539 11 532 42 b 638 200 532 108 583 200 b 665 154 654 200 665 182 b 563 11 665 106 618 11 z "},"˜":{"ha":492,"x_min":0,"x_max":0,"o":"m 214 832 b 222 817 214 826 214 817 b 329 868 233 817 281 868 b 463 818 369 868 407 818 b 599 925 513 818 599 860 b 586 944 599 933 594 944 b 483 889 564 944 528 889 b 328 950 431 889 385 950 b 214 832 265 950 214 893 z "},":":{"ha":372,"x_min":0,"x_max":0,"o":"m 218 497 b 322 585 264 497 317 543 b 256 650 326 618 294 650 b 165 560 211 650 169 608 b 218 497 163 522 185 497 z m 139 117 b 243 204 185 117 238 163 b 176 269 247 238 215 269 b 86 179 132 269 90 228 b 139 117 83 142 106 117 z "},";":{"ha":392,"x_min":0,"x_max":0,"o":"m 239 497 b 343 585 285 497 338 543 b 276 650 347 618 315 650 b 186 560 232 650 190 608 b 239 497 183 522 206 497 z m 83 -29 b 233 150 136 -29 229 107 b 172 229 236 189 214 229 b 106 113 124 229 108 149 b 75 43 103 86 82 67 b 67 6 72 31 68 18 b 83 -29 65 -8 67 -29 z "},"'":{"ha":279,"x_min":0,"x_max":0,"o":"m 182 781 b 269 924 222 781 267 892 b 214 985 274 964 254 985 b 169 963 197 985 175 982 b 149 864 160 931 153 897 l 147 840 b 182 781 144 813 149 781 z "},"\"":{"ha":365,"x_min":0,"x_max":0,"o":"m 136 783 b 161 767 138 772 150 767 b 243 913 200 767 242 892 b 183 976 247 950 219 976 b 140 842 154 976 142 863 b 136 783 139 822 135 803 z m 258 783 b 285 776 263 775 275 776 b 319 793 294 776 315 783 b 371 915 333 822 367 868 b 328 964 374 947 360 964 b 294 957 318 964 301 965 b 258 783 286 946 251 799 z "},"‘":{"ha":219,"x_min":0,"x_max":0,"o":"m 81 906 b 156 767 71 844 82 772 b 189 783 165 767 186 771 b 144 861 192 803 136 811 b 201 990 153 907 194 943 b 163 1022 206 1014 182 1021 b 81 906 121 1025 86 939 z "},"’":{"ha":243,"x_min":0,"x_max":0,"o":"m 90 757 b 115 740 90 754 97 743 b 228 901 163 733 222 863 b 186 997 232 932 225 992 b 142 964 167 1000 144 983 b 139 872 138 933 144 901 b 110 782 135 844 125 806 b 90 757 104 775 92 767 z "},"“":{"ha":301,"x_min":0,"x_max":0,"o":"m 197 1017 b 101 882 147 1024 107 921 b 171 761 94 828 107 769 b 206 776 179 760 204 764 b 165 847 208 793 160 807 b 232 981 172 899 225 938 b 197 1017 235 1004 218 1014 z m 292 985 b 215 876 254 989 219 907 b 272 779 210 832 221 786 b 300 790 283 778 293 782 b 267 849 304 806 263 818 b 321 957 272 892 315 919 b 292 985 324 978 308 982 z "},"”":{"ha":304,"x_min":0,"x_max":0,"o":"m 93 763 b 110 756 97 758 104 756 b 215 921 164 753 213 876 b 164 1013 217 953 204 1010 b 122 971 140 1014 124 993 b 129 883 121 942 131 914 b 107 792 128 864 117 807 b 93 763 100 781 96 775 z m 206 768 b 218 761 210 764 213 761 b 315 911 267 758 314 869 b 267 990 317 939 301 989 b 231 957 249 992 232 975 b 236 874 229 929 238 903 b 218 793 235 847 229 818 b 206 768 208 788 207 778 z "},"‚":{"ha":306,"x_min":0,"x_max":0,"o":"m 88 -72 b 106 -82 92 -78 99 -82 b 217 69 154 -82 217 24 b 174 139 217 94 204 139 b 136 96 146 139 136 121 b 104 -50 136 25 136 13 b 88 -72 100 -58 90 -62 z "},"„":{"ha":299,"x_min":0,"x_max":0,"o":"m 51 -79 b 65 -87 54 -85 60 -87 b 167 58 115 -92 163 17 b 121 139 169 86 156 136 b 83 104 100 140 85 124 b 88 28 81 78 89 53 b 65 -56 85 0 76 -31 b 51 -79 56 -62 54 -69 z m 157 -72 b 168 -78 160 -75 164 -78 b 253 53 206 -82 250 22 b 217 132 254 78 249 129 b 186 96 199 133 188 113 b 186 28 185 74 188 51 b 168 -47 185 3 178 -24 b 157 -72 161 -54 160 -62 z "},"•":{"ha":460,"x_min":0,"x_max":0,"o":"m 274 417 b 390 524 319 417 390 461 b 303 626 390 574 354 626 b 196 511 239 626 196 571 b 274 417 196 463 225 417 z "},".":{"ha":351,"x_min":0,"x_max":0,"o":"m 167 43 b 271 131 213 43 265 89 b 204 196 275 164 243 196 b 114 106 160 196 118 154 b 167 43 111 68 133 43 z "},"†":{"ha":531,"x_min":0,"x_max":0,"o":"m 232 672 b 225 -12 222 553 164 56 b 261 -36 233 -21 249 -36 b 293 -6 275 -36 292 -19 b 283 15 293 3 289 10 b 276 83 275 26 275 68 b 282 178 276 114 279 146 b 374 786 289 260 349 732 b 579 867 408 790 575 824 b 546 881 579 881 554 881 b 431 867 507 881 469 867 b 424 867 428 867 426 867 l 408 869 b 401 869 406 869 404 869 b 399 893 397 876 399 885 b 418 1039 403 940 414 989 b 375 1203 422 1074 428 1203 l 319 1203 b 247 856 269 1124 268 950 b 119 828 208 846 158 828 b 96 817 110 828 103 825 b 86 788 90 808 86 797 b 100 758 85 778 88 758 l 239 758 b 232 672 238 729 235 701 z "},"_":{"ha":569,"x_min":0,"x_max":0,"o":"m 83 -90 b 518 -51 188 -90 419 -81 b 549 -31 525 -49 547 -42 b 536 -7 550 -24 553 -14 b 243 0 511 4 296 0 b 57 -11 210 0 85 -1 b 21 -50 40 -18 22 -31 b 83 -90 18 -83 58 -90 z "},"—":{"ha":908,"x_min":0,"x_max":0,"o":"m 225 393 b 711 414 386 393 549 400 b 865 447 731 415 864 426 b 853 472 867 456 861 467 b 703 483 838 482 728 483 b 199 472 650 483 219 481 b 161 433 181 465 164 453 b 225 393 158 400 200 393 z "},"–":{"ha":694,"x_min":0,"x_max":0,"o":"m 225 393 b 594 446 275 393 590 401 b 588 472 596 454 593 465 b 425 483 575 486 450 483 b 199 472 389 483 222 482 b 161 433 181 465 164 454 b 225 393 158 400 200 393 z "},"¯":{"ha":529,"x_min":0,"x_max":0,"o":"m 286 853 b 603 906 335 846 597 844 b 585 924 603 914 593 922 b 401 933 550 929 471 933 b 290 926 354 933 310 932 b 268 901 279 924 269 914 b 286 853 267 883 267 856 z "},"‡":{"ha":596,"x_min":0,"x_max":0,"o":"m 281 224 l 276 168 b 307 -24 274 143 286 -24 b 378 224 340 -24 360 207 b 572 311 414 238 568 267 b 554 326 572 322 564 326 b 426 307 511 326 469 307 l 385 307 b 458 776 418 463 422 621 b 496 797 471 782 483 789 b 572 833 519 813 547 819 b 590 857 582 838 589 846 b 561 869 592 869 569 869 b 475 860 532 869 504 861 b 496 1010 479 910 490 960 b 446 1192 499 1054 511 1192 b 388 1164 418 1192 404 1189 b 375 1086 386 1138 378 1113 b 376 1033 374 1068 378 1051 b 350 860 372 976 360 917 b 161 783 314 860 165 829 b 196 751 160 757 172 751 b 329 776 242 751 283 776 b 338 740 343 776 338 750 b 274 307 332 683 293 336 b 143 253 240 290 147 303 b 200 219 140 217 174 219 b 219 219 207 219 213 219 l 261 224 b 281 224 268 224 274 224 z "},"®":{"ha":760,"x_min":0,"x_max":0,"o":"m 628 742 b 436 943 628 854 558 943 b 164 590 283 943 164 789 b 357 403 164 486 247 403 b 628 742 510 403 628 557 z m 365 465 b 236 610 285 465 236 542 b 436 890 236 769 328 890 b 571 729 526 890 571 810 b 365 465 571 578 479 465 z m 472 532 b 492 553 481 526 494 542 b 438 638 479 599 438 615 l 438 640 b 511 775 469 688 511 711 b 449 833 511 815 486 833 b 385 814 422 833 401 814 b 353 818 374 814 363 818 b 321 785 331 818 326 803 b 279 543 307 736 279 590 b 304 526 279 526 292 526 b 361 606 356 526 340 606 b 472 532 399 606 433 560 z m 442 747 b 376 678 442 718 407 678 b 367 688 369 678 367 682 b 432 760 367 719 399 760 l 439 760 b 442 747 440 756 442 751 z "},"©":{"ha":908,"x_min":0,"x_max":0,"o":"m 501 867 b 99 381 311 867 99 615 b 381 83 99 210 211 83 b 829 490 606 83 829 279 b 501 867 829 671 697 867 z m 719 515 b 419 164 719 335 572 164 b 199 383 306 164 199 260 b 528 769 199 551 383 769 b 719 515 664 769 719 656 z m 528 626 b 299 436 442 644 319 542 b 376 321 286 375 311 333 b 431 315 393 318 411 315 b 657 407 528 315 646 357 b 647 425 658 417 656 424 b 442 388 617 432 522 372 b 403 440 408 394 396 410 b 499 533 413 486 449 533 b 560 571 526 533 551 528 b 528 626 569 619 538 625 z "},"¤":{"ha":579,"x_min":0,"x_max":0,"o":"m 193 568 b 128 379 150 513 133 444 b 167 211 122 319 129 257 b 139 149 157 194 140 167 b 160 110 138 135 142 110 b 169 114 163 110 168 111 b 215 178 176 122 210 169 b 279 165 236 169 257 165 b 356 186 303 165 333 175 b 410 111 361 161 381 111 b 444 144 429 111 443 125 b 411 233 447 172 417 207 b 492 422 456 288 485 356 b 454 586 496 478 488 543 b 489 651 467 606 488 628 b 460 685 490 669 479 685 b 393 621 429 685 407 644 b 318 642 376 633 346 642 b 250 624 294 642 272 635 b 218 682 249 631 231 682 b 171 636 192 682 174 661 b 193 568 169 625 188 579 z m 286 242 b 207 400 225 242 197 322 b 322 567 213 450 250 567 b 419 419 397 567 425 489 b 286 242 415 357 360 242 z "},"¥":{"ha":556,"x_min":0,"x_max":0,"o":"m 211 42 b 225 36 214 38 219 36 b 256 56 235 36 253 44 b 269 83 264 63 267 74 b 292 207 278 125 282 165 b 331 321 297 228 314 307 b 481 374 364 346 468 319 b 475 397 483 383 488 397 b 407 400 460 397 421 400 l 351 400 l 360 463 b 499 513 401 482 486 460 b 383 539 504 536 404 533 b 553 768 383 599 543 731 b 525 800 557 783 540 800 b 332 621 482 800 363 661 b 296 699 319 646 304 669 b 221 794 285 739 274 794 b 165 738 188 794 172 767 b 247 524 151 682 229 558 b 114 469 211 522 129 532 b 128 443 111 456 113 443 b 218 453 157 443 189 453 b 244 407 249 453 251 435 b 54 332 231 346 71 404 b 89 301 49 307 68 301 b 235 313 142 301 179 313 b 201 76 218 238 203 149 b 211 42 201 69 201 42 z "},"−":{"ha":700,"x_min":0,"x_max":0,"o":"m 151 376 b 217 350 149 350 199 350 b 592 381 282 350 540 358 b 632 425 613 389 629 401 b 571 440 633 440 582 440 b 189 426 525 440 224 440 b 151 376 165 417 153 400 z "},"±":{"ha":719,"x_min":0,"x_max":0,"o":"m 353 235 b 447 421 429 228 436 372 b 625 471 496 424 625 413 b 563 493 625 486 574 493 l 461 499 b 482 617 469 540 479 574 b 435 701 486 660 486 697 b 344 507 363 707 354 557 l 338 507 b 179 457 293 507 179 528 b 275 429 179 428 254 431 l 328 425 b 353 235 322 393 303 239 z m 133 147 b 200 121 132 121 182 121 b 561 147 265 121 508 125 b 600 192 582 156 599 168 b 539 207 601 207 550 207 b 171 197 493 207 206 211 b 133 147 149 188 136 171 z "},"÷":{"ha":642,"x_min":0,"x_max":0,"o":"m 385 525 b 460 583 413 525 457 553 b 401 663 463 622 446 663 b 333 574 357 663 336 610 b 385 525 331 540 353 525 z m 129 394 b 194 368 126 368 176 368 b 571 399 260 368 518 376 b 611 443 592 407 608 419 b 550 458 613 458 561 458 b 167 444 504 458 201 458 b 129 394 143 435 131 418 z m 315 169 b 390 232 339 169 388 208 b 314 306 394 282 361 306 b 265 232 285 306 267 256 b 315 169 261 188 268 169 z "},"×":{"ha":649,"x_min":0,"x_max":0,"o":"m 247 592 b 207 565 233 592 208 583 b 290 394 206 528 269 429 b 154 225 269 371 156 244 b 179 210 153 215 172 210 b 332 331 224 210 299 300 b 446 210 351 299 403 210 b 472 219 456 210 464 213 l 476 224 b 393 396 478 247 408 367 b 529 565 418 422 528 538 b 496 590 531 583 510 590 b 353 465 450 590 381 499 b 247 592 324 500 301 592 z "},"§":{"ha":514,"x_min":0,"x_max":0,"o":"m 297 196 b 65 99 289 101 72 176 b 169 44 61 47 132 44 b 399 224 292 44 388 89 b 344 388 407 321 357 328 l 350 393 b 411 407 372 397 388 393 b 482 528 454 431 478 481 b 321 867 494 672 311 763 b 358 900 322 885 340 900 b 463 735 443 900 426 735 b 519 831 497 735 518 804 b 321 1019 529 933 417 1019 b 217 867 249 1019 221 922 b 258 714 211 811 218 751 b 221 679 257 696 232 690 b 174 544 186 647 178 586 b 297 196 164 424 307 300 z m 349 631 b 397 513 368 608 400 544 b 356 490 396 492 371 490 l 325 490 b 261 544 288 490 258 501 b 347 632 264 572 318 632 b 349 631 347 632 350 632 z "},"¦":{"ha":551,"x_min":0,"x_max":0,"o":"m 353 614 b 389 631 369 614 383 614 b 496 1204 406 681 496 1138 b 425 1310 496 1244 475 1310 b 399 1253 417 1310 401 1261 b 361 1106 385 1204 372 1156 b 275 663 328 961 294 799 b 353 614 271 629 326 614 z m 251 514 b 203 26 225 372 203 190 b 244 -131 203 -3 201 -131 b 267 -87 264 -131 265 -101 b 283 53 269 -40 276 7 b 331 335 297 147 313 240 b 360 489 340 383 360 440 b 294 532 360 521 321 532 b 251 514 276 532 254 532 z "},"·":{"ha":394,"x_min":0,"x_max":0,"o":"m 201 403 b 306 490 247 403 300 449 b 239 556 310 524 278 556 b 149 465 194 556 153 514 b 201 403 146 428 168 403 z "},"°":{"ha":413,"x_min":0,"x_max":0,"o":"m 296 1011 b 168 840 214 1011 168 911 b 263 738 168 794 188 738 b 393 901 321 738 393 826 b 296 1011 393 956 351 1011 z m 331 901 b 258 794 331 854 292 794 b 228 854 231 794 228 828 b 290 950 228 879 258 950 b 331 901 313 950 331 928 z "},"ª":{"ha":576,"x_min":0,"x_max":0,"o":"m 317 788 b 304 688 311 756 304 719 b 360 633 304 656 329 633 b 415 656 382 633 400 640 b 558 861 451 689 539 815 b 544 881 560 871 556 881 b 382 700 510 881 413 701 l 379 707 b 400 814 382 743 389 779 b 442 929 407 833 442 915 b 396 957 442 953 415 957 b 342 913 361 957 356 940 b 261 957 326 940 292 957 b 156 796 189 957 156 857 b 218 692 156 758 168 692 b 317 788 267 692 293 753 z m 326 861 b 231 742 300 817 267 778 b 221 781 221 742 221 774 b 283 907 221 810 247 907 b 326 861 303 907 321 878 z "},"º":{"ha":383,"x_min":0,"x_max":0,"o":"m 272 1015 b 179 906 197 1015 197 935 b 121 760 140 840 121 851 b 213 626 121 703 143 626 b 351 768 290 626 328 706 b 478 854 388 771 478 813 b 463 878 478 864 474 878 b 367 825 428 861 410 831 b 272 1015 372 883 350 1015 z m 267 947 b 310 847 299 947 310 871 l 310 836 l 304 833 b 243 921 281 833 243 899 b 267 947 243 936 251 947 z m 296 769 b 226 685 292 742 258 685 b 206 750 206 685 206 736 b 214 831 206 778 206 804 b 296 769 235 804 264 779 z "},"¹":{"ha":340,"x_min":0,"x_max":0,"o":"m 167 633 b 94 603 146 633 94 632 b 131 571 94 581 108 571 b 326 613 168 571 322 568 b 319 625 326 617 324 624 b 279 635 306 631 294 633 l 249 636 b 322 1001 288 771 322 882 b 267 1076 322 1033 307 1076 b 142 928 233 1076 142 958 b 167 901 142 915 154 901 b 215 938 186 901 207 922 b 167 633 206 829 174 722 z "},"²":{"ha":353,"x_min":0,"x_max":0,"o":"m 253 967 b 78 621 253 854 78 676 b 133 582 78 583 103 582 b 296 631 161 582 296 592 b 289 643 296 635 293 640 b 174 656 276 651 190 654 b 338 983 226 760 338 863 b 247 1083 338 1043 311 1083 b 108 981 194 1083 108 1042 b 143 939 108 961 121 939 b 157 946 149 939 154 940 b 232 1007 185 965 190 1007 b 253 967 246 1007 253 978 z "},"³":{"ha":329,"x_min":0,"x_max":0,"o":"m 61 664 b 38 638 44 664 38 653 b 140 571 38 597 107 571 b 299 739 221 571 299 660 b 197 863 299 807 260 849 b 288 1024 231 892 288 979 b 222 1086 288 1060 257 1086 b 94 996 183 1086 94 1040 b 118 969 94 982 103 969 b 203 1001 142 969 167 1001 b 117 846 197 954 117 871 b 222 728 117 793 222 799 b 143 636 222 683 190 636 b 61 664 103 636 82 664 z "},"⁄":{"ha":339,"x_min":0,"x_max":0,"o":"m -151 -26 b -137 -60 -151 -39 -149 -54 b 435 704 -74 -29 357 597 b 578 922 468 749 574 874 b 540 972 581 947 568 972 b 479 943 518 972 496 958 b 365 788 435 900 401 838 b 179 515 301 699 240 607 b -56 150 101 394 17 275 b -137 21 -79 106 -115 65 b -151 -26 -144 6 -150 -10 z "},"¼":{"ha":850,"x_min":0,"x_max":0,"o":"m 190 492 b 239 540 214 490 233 517 b 374 897 275 664 354 807 b 319 939 381 925 343 936 b 289 924 307 939 296 936 b 161 547 243 847 193 625 b 190 492 153 526 161 494 z m 149 19 b 167 -1 150 8 151 -4 b 703 861 224 6 685 796 b 647 906 711 886 675 910 b 550 796 614 901 567 825 b 261 278 456 636 349 440 b 157 65 224 210 185 139 b 149 19 153 53 146 35 z m 588 -56 b 614 -89 588 -71 599 -93 b 694 42 658 -78 685 8 b 818 457 717 111 825 421 b 807 469 815 467 813 465 b 776 489 792 485 786 489 b 749 485 769 489 761 488 b 665 265 694 472 676 315 b 560 253 625 254 600 243 b 697 500 610 332 664 413 l 696 507 b 653 543 688 529 676 549 b 456 258 628 538 467 294 b 453 189 447 235 447 211 b 517 154 461 151 483 147 b 638 165 553 164 638 169 b 588 -56 622 88 588 0 z "},"½":{"ha":903,"x_min":0,"x_max":0,"o":"m 197 540 b 219 524 199 531 210 525 b 269 547 239 522 258 532 b 376 804 279 553 365 778 b 396 874 386 825 393 850 b 347 921 400 910 379 918 b 282 872 313 925 297 899 b 197 540 263 839 206 586 z m 124 3 b 140 -33 124 -11 125 -33 b 631 574 194 -33 563 475 b 808 813 686 656 756 728 b 831 872 819 831 831 850 b 788 921 831 900 817 921 b 718 889 761 921 738 906 b 585 717 664 842 626 774 b 124 3 522 632 124 74 z m 758 365 b 517 -17 758 294 517 51 b 726 -87 517 -111 660 -87 b 788 -49 747 -87 797 -72 b 642 7 775 -19 642 -17 b 869 392 642 40 869 269 b 743 488 869 457 800 488 b 558 360 694 488 558 415 b 588 318 558 344 569 318 b 739 382 615 318 660 382 b 758 365 751 382 758 378 z "},"¾":{"ha":1067,"x_min":0,"x_max":0,"o":"m 163 306 b 233 328 178 306 217 322 b 432 540 325 363 432 429 b 376 638 432 569 396 617 b 500 835 426 681 500 760 b 368 924 500 885 451 924 b 238 831 315 924 238 894 b 290 772 238 804 263 772 b 371 811 308 772 343 811 b 392 786 379 811 392 807 b 258 614 392 753 258 692 b 328 524 258 561 328 564 b 133 333 328 425 133 401 b 163 306 133 317 147 306 z m 201 -76 b 250 -58 219 -76 239 -74 b 942 790 314 31 942 707 b 881 847 942 829 918 847 b 806 796 851 847 824 815 b 657 611 751 738 706 674 b 397 289 574 503 486 393 b 213 17 325 206 272 110 b 179 -54 203 1 179 -36 b 201 -76 179 -69 185 -76 z m 811 -126 b 831 -104 821 -125 828 -110 b 949 206 886 -6 908 103 b 997 363 961 239 1000 329 b 953 400 996 388 976 401 b 842 203 910 397 865 238 b 797 175 831 186 819 176 b 711 190 783 174 713 171 b 863 364 710 221 865 315 b 833 390 861 381 850 392 b 636 213 792 388 653 250 b 626 156 628 193 625 175 b 701 115 628 121 663 115 b 808 103 751 115 807 125 b 793 57 810 89 797 71 b 782 -87 781 14 779 -42 b 811 -126 783 -106 789 -128 z "},"‰":{"ha":1219,"x_min":0,"x_max":0,"o":"m 146 -25 b 171 -37 153 -32 161 -37 b 258 43 201 -37 242 21 b 889 822 344 160 883 754 b 853 876 890 844 879 876 b 796 849 833 876 811 861 b 650 689 743 804 694 742 b 254 151 507 518 378 335 b 146 -25 231 118 151 6 z m 265 529 b 469 746 367 529 461 651 b 363 872 475 806 425 872 b 171 649 278 872 178 725 b 265 529 164 575 186 529 z m 281 608 b 250 658 258 608 249 640 b 356 799 254 706 299 799 b 383 744 374 799 385 760 b 281 608 379 699 336 608 z m 597 -56 b 799 163 699 -56 790 69 b 692 289 804 222 754 289 b 500 65 607 289 507 142 b 597 -56 493 -8 518 -56 z m 908 -56 b 1111 163 1010 -56 1103 68 b 1004 289 1117 222 1067 289 b 813 65 919 289 819 142 b 908 -56 806 -8 829 -56 z m 611 25 b 581 75 590 25 579 57 b 686 215 585 122 629 215 b 713 161 703 215 714 175 b 611 25 708 114 668 25 z m 924 25 b 893 75 903 25 892 57 b 999 215 897 122 942 215 b 1025 161 1015 215 1026 175 b 924 25 1021 115 979 25 z "},"¶":{"ha":597,"x_min":0,"x_max":0,"o":"m 225 178 b 225 28 224 153 213 42 b 258 13 232 19 246 13 b 275 28 268 13 274 18 b 294 78 289 40 293 61 b 338 350 303 168 321 260 b 379 540 347 414 363 476 b 432 749 394 610 408 679 b 464 874 446 789 457 831 b 546 894 488 886 519 894 b 567 889 551 894 561 893 b 425 249 526 675 443 465 b 422 28 421 211 406 53 b 443 15 425 21 435 15 b 485 165 465 15 482 144 b 583 618 510 318 539 467 b 660 922 606 699 653 846 b 443 1021 667 1001 500 1021 b 94 689 269 1021 110 860 b 281 551 85 571 183 550 b 244 338 275 481 256 408 b 225 178 238 283 231 231 z "},"‹":{"ha":482,"x_min":0,"x_max":0,"o":"m 368 256 b 211 410 375 331 239 363 b 414 553 249 450 406 468 b 396 569 415 565 407 569 b 154 410 338 569 160 475 b 338 233 149 357 285 233 b 368 256 351 233 361 243 z "},"›":{"ha":431,"x_min":0,"x_max":0,"o":"m 185 547 b 343 393 179 472 315 440 b 140 250 304 353 147 335 b 158 233 139 238 147 233 b 400 393 217 233 394 328 b 217 569 404 446 269 569 b 185 547 203 569 192 560 z "},"«":{"ha":585,"x_min":0,"x_max":0,"o":"m 368 256 b 211 410 375 331 239 363 b 414 553 249 450 406 468 b 396 569 415 565 407 569 b 154 410 338 569 160 475 b 338 233 149 357 285 233 b 368 256 351 233 361 243 z m 515 265 b 378 400 521 331 399 363 b 556 525 411 436 549 450 b 539 540 557 536 549 540 b 328 400 488 540 333 457 b 488 246 324 354 443 246 b 515 265 497 246 514 254 z "},"»":{"ha":588,"x_min":0,"x_max":0,"o":"m 329 547 b 488 393 324 472 460 440 b 285 250 449 353 292 335 b 303 233 283 238 292 233 b 544 393 361 233 539 328 b 361 569 549 446 414 569 b 329 547 347 569 336 560 z m 183 538 b 319 403 178 475 301 438 b 142 278 286 367 149 353 b 160 263 142 267 150 263 b 369 403 211 263 365 346 b 210 557 374 449 254 557 b 183 538 200 557 185 549 z "},"ƒ":{"ha":301,"x_min":0,"x_max":0,"o":"m -190 -299 b 219 583 42 -299 156 406 b 350 606 239 583 350 581 b 300 646 350 640 332 646 b 235 649 283 646 250 640 b 358 910 251 693 308 910 b 451 726 463 910 383 726 b 517 788 489 726 517 750 b 360 979 517 875 458 979 b 121 635 210 979 163 743 b -31 589 81 624 -31 647 b -15 567 -31 579 -28 567 b 99 569 21 567 64 563 b 103 564 101 568 103 567 b 60 408 93 515 71 456 b -190 -211 31 281 -57 -211 b -254 -243 -239 -211 -254 -224 b -190 -299 -254 -281 -226 -299 z "},"¬":{"ha":814,"x_min":0,"x_max":0,"o":"m 247 436 b 586 447 357 436 475 433 b 589 339 583 424 583 360 b 615 325 593 328 604 325 b 658 396 654 325 656 367 b 649 511 661 432 667 481 b 488 522 638 529 517 522 b 221 515 446 522 250 528 b 183 476 203 508 185 497 b 247 436 181 443 222 436 z "},"™":{"ha":908,"x_min":0,"x_max":0,"o":"m 326 1072 b 210 647 283 947 210 778 b 232 589 210 632 210 589 b 254 622 246 589 251 613 b 404 1069 283 731 347 985 b 557 1113 447 1069 557 1049 b 544 1122 557 1119 550 1122 b 417 1110 500 1122 461 1110 b 169 1128 358 1110 228 1128 b 151 1069 128 1128 135 1069 b 326 1072 186 1069 292 1078 z m 892 1031 b 764 631 886 917 764 775 b 807 554 764 603 769 554 b 864 594 826 554 864 571 b 829 636 864 615 829 596 b 976 1056 829 769 976 917 b 931 1107 976 1081 957 1107 b 715 864 846 1107 750 932 b 767 1018 729 900 767 983 b 725 1068 767 1047 758 1068 b 522 829 642 1068 557 894 b 592 1042 536 876 592 1004 b 557 1078 592 1064 581 1078 b 539 1075 551 1078 544 1076 b 413 715 506 1063 413 761 b 444 674 413 694 419 674 b 676 1001 528 674 643 1001 b 682 986 682 1001 682 989 b 596 721 682 893 596 814 b 613 703 596 713 603 703 b 885 1043 700 703 824 1040 z "},"˘":{"ha":436,"x_min":0,"x_max":0,"o":"m 261 917 b 367 786 256 863 310 786 b 543 982 460 786 536 897 b 511 1019 544 1001 532 1019 b 383 867 476 1019 440 867 b 315 976 339 867 361 976 b 261 917 279 976 264 949 z "},"˙":{"ha":254,"x_min":0,"x_max":0,"o":"m 228 876 b 290 825 225 843 261 825 b 354 871 315 825 351 842 b 286 933 357 908 321 933 b 228 876 250 933 231 910 z "},"˚":{"ha":300,"x_min":0,"x_max":0,"o":"m 229 861 b 288 789 226 821 244 789 b 417 910 349 789 411 849 b 344 996 421 956 392 996 b 229 861 278 996 235 919 z m 363 924 b 297 847 360 893 332 847 b 286 863 288 847 285 854 b 356 946 288 882 335 946 b 363 924 363 942 364 932 z "},"˝":{"ha":342,"x_min":0,"x_max":0,"o":"m 207 815 b 211 794 207 808 208 801 l 218 790 b 382 958 243 790 381 933 b 349 983 383 974 361 983 b 207 815 310 983 211 851 z m 346 818 b 356 800 344 808 343 800 b 494 944 390 800 492 910 b 479 975 496 958 492 969 b 440 961 468 975 442 976 b 346 818 408 950 349 850 z "},"˛":{"ha":306,"x_min":0,"x_max":0,"o":"m 81 -68 b 142 -154 76 -110 94 -154 b 250 -87 171 -154 247 -121 b 235 -75 251 -78 243 -75 b 164 -99 208 -75 190 -99 b 150 -68 147 -99 149 -81 b 224 69 156 -4 219 29 b 188 97 225 92 206 97 b 81 -68 136 97 83 -26 z "},"ˇ":{"ha":436,"x_min":0,"x_max":0,"o":"m 367 779 b 419 796 385 779 403 783 b 543 1004 439 813 542 981 b 531 1015 544 1013 538 1015 b 403 853 474 989 439 900 b 325 994 396 879 353 994 b 292 949 301 994 293 968 b 367 779 288 908 329 779 z "},"`":{"ha":390,"x_min":0,"x_max":0,"o":"m 290 961 b 306 889 288 942 294 906 b 422 786 321 868 397 786 b 449 810 431 786 446 801 b 314 992 439 849 353 992 b 290 961 296 992 292 976 z "},"ˆ":{"ha":388,"x_min":0,"x_max":0,"o":"m 278 792 b 400 917 321 792 365 894 b 497 785 424 890 451 785 b 514 793 503 785 510 788 l 517 799 l 517 800 b 453 989 518 815 463 978 b 421 1000 444 997 433 1000 b 407 1006 417 1003 413 1006 b 267 819 381 1006 278 849 b 278 792 267 808 269 800 z "},"¨":{"ha":463,"x_min":0,"x_max":0,"o":"m 457 949 b 407 883 418 949 410 915 b 456 818 404 851 419 818 b 519 879 489 818 517 847 b 457 949 522 907 485 949 z m 229 893 b 267 832 228 868 238 832 b 317 893 288 832 315 875 b 286 936 319 914 310 936 b 229 893 249 936 233 935 z "},"´":{"ha":260,"x_min":0,"x_max":0,"o":"m 226 815 b 231 794 226 808 228 801 l 238 790 b 401 958 263 790 400 933 b 368 983 403 974 381 983 b 226 815 329 983 231 851 z "},"¸":{"ha":313,"x_min":0,"x_max":0,"o":"m 113 -119 b 99 -142 101 -119 99 -132 b 163 -196 99 -172 135 -196 b 256 -78 222 -196 256 -131 b 161 3 256 -10 206 -21 b 192 94 164 35 192 68 b 163 115 192 113 178 115 b 88 -22 132 115 88 6 b 185 -64 88 -50 163 -64 b 189 -89 188 -72 189 -81 b 179 -129 189 -101 185 -118 b 160 -136 174 -132 167 -136 l 150 -129 b 113 -119 136 -129 126 -119 z "},"Þ":{"ha":803,"x_min":0,"x_max":0,"o":"m 122 319 b 153 258 119 293 118 258 b 188 264 164 258 175 261 b 267 -97 182 203 183 -97 b 324 10 314 -97 321 -24 b 325 271 331 97 318 183 b 328 292 325 278 326 285 b 801 625 528 292 782 392 b 542 879 818 806 711 879 b 378 861 488 879 432 872 b 421 1194 388 972 411 1083 b 361 1236 408 1215 389 1236 b 326 1222 349 1236 336 1231 b 251 847 286 1099 279 972 b 103 736 188 824 111 821 b 140 681 101 711 111 681 b 226 708 169 681 200 694 l 197 375 l 156 375 b 122 319 140 375 124 332 z m 689 611 b 481 424 681 514 563 450 b 336 389 433 408 385 401 b 343 575 333 450 338 513 b 368 750 349 633 356 692 b 519 767 419 760 469 767 b 689 611 626 767 700 729 z "},"þ":{"ha":447,"x_min":0,"x_max":0,"o":"m 26 51 b 67 25 35 36 47 25 b 125 78 92 25 121 53 b 157 296 129 111 144 269 b 249 326 183 310 221 317 b 450 522 339 356 438 421 b 288 700 463 624 372 683 l 218 714 b 238 954 222 750 250 906 b 176 994 231 982 206 994 b 140 979 163 994 149 992 b 107 819 121 949 113 854 b 93 697 103 778 99 738 b 57 635 71 692 60 653 b 79 588 56 617 56 588 b 26 51 57 408 49 231 z m 335 518 b 182 393 328 461 235 393 b 175 451 169 393 175 440 b 213 596 179 475 193 585 b 253 603 225 601 240 603 b 335 518 288 603 339 554 z "},"ß":{"ha":697,"x_min":0,"x_max":0,"o":"m 494 1083 b 63 458 260 1083 108 640 b 4 29 26 319 17 169 b 32 -56 1 7 0 -56 b 100 24 74 -56 90 -10 b 131 211 117 83 118 150 b 482 972 160 353 297 972 b 526 847 525 972 529 878 b 372 514 515 715 383 635 b 501 240 363 403 514 385 b 435 171 497 196 482 171 b 332 208 378 171 382 208 b 314 182 319 208 315 192 b 425 78 307 103 350 78 b 629 264 525 78 619 163 b 460 521 638 363 456 482 b 654 847 463 563 642 704 b 494 1083 664 951 614 1083 z "},"ð":{"ha":489,"x_min":0,"x_max":0,"o":"m 36 388 b 163 244 29 306 79 244 b 317 289 219 244 269 247 b 447 597 403 363 438 493 b 351 931 463 772 349 910 b 451 1115 369 964 450 1089 b 417 1138 453 1129 428 1138 b 288 1000 379 1138 318 1000 b 167 1075 254 1024 211 1075 b 94 1026 126 1075 99 1075 b 208 888 90 986 213 940 b 156 778 206 851 158 815 b 174 760 154 765 161 760 b 276 829 203 760 256 810 b 333 690 293 792 338 731 b 290 663 332 667 308 667 b 36 388 171 638 47 508 z m 349 549 b 201 333 342 472 299 333 b 142 417 156 333 139 376 b 163 482 144 439 151 461 b 340 607 181 514 306 607 b 349 549 351 601 349 561 z "},",":{"ha":274,"x_min":0,"x_max":0,"o":"m 56 -85 b 206 94 108 -85 201 51 b 144 174 208 133 186 174 b 78 57 96 174 81 93 b 47 -12 75 31 54 11 b 39 -50 44 -25 40 -37 b 56 -85 38 -64 39 -85 z "},"…":{"ha":1054,"x_min":0,"x_max":0,"o":"m 167 43 b 271 131 213 43 265 89 b 204 196 275 164 243 196 b 114 106 160 196 118 154 b 167 43 111 68 133 43 z m 518 43 b 622 131 564 43 617 89 b 556 196 626 164 594 196 b 465 106 511 196 469 154 b 518 43 463 68 485 43 z m 869 43 b 974 131 915 43 968 89 b 907 196 978 164 946 196 b 817 106 863 196 821 154 b 869 43 814 68 836 43 z "},"¡":{"ha":374,"x_min":0,"x_max":0,"o":"m 354 811 b 314 864 358 838 340 864 b 242 801 274 865 242 838 b 292 758 242 783 260 758 b 354 811 333 758 349 767 z m 303 660 b 279 675 300 671 290 675 b 247 663 268 675 256 671 b 47 -122 196 614 60 -25 b 108 -194 42 -165 65 -193 b 293 479 176 -194 281 382 b 303 660 300 539 313 625 z "},"¿":{"ha":661,"x_min":0,"x_max":0,"o":"m 457 768 b 519 828 500 768 519 782 b 479 874 519 851 503 874 b 407 811 442 874 407 851 b 457 768 407 786 433 768 z m 158 7 b 500 606 158 231 451 299 b 501 628 501 613 501 621 b 467 693 501 640 499 693 b 392 611 443 693 407 674 b 29 3 326 342 29 261 b 306 -272 29 -156 133 -272 b 621 31 492 -272 621 -140 b 486 199 621 138 572 199 b 418 165 444 199 418 185 b 499 13 418 128 499 121 b 315 -150 499 -94 403 -150 b 158 7 219 -150 158 -96 z "},"À":{"ha":1181,"x_min":0,"x_max":0,"o":"m 803 1572 b 818 1500 800 1553 807 1517 b 935 1397 833 1479 910 1397 b 961 1421 943 1397 958 1413 b 826 1603 951 1460 865 1603 b 803 1572 808 1603 804 1588 z m 1144 525 b 997 494 1094 525 1046 504 b 1013 1104 993 744 1013 1004 b 968 1229 1013 1135 1015 1229 b 511 507 840 1229 679 828 b 457 508 493 508 475 508 b 313 485 407 508 358 503 b 44 165 192 438 44 304 b 161 22 44 97 85 22 b 572 411 304 22 449 200 b 875 389 678 401 751 385 b 1103 -111 889 126 943 -111 b 1160 -81 1122 -111 1160 -107 l 1158 -72 b 1158 -69 1158 -71 1158 -71 b 1133 -57 1150 -65 1142 -61 b 1001 399 1044 -10 1010 182 l 1006 400 b 1174 501 1061 407 1174 428 b 1144 525 1174 522 1163 525 z m 619 496 b 888 1046 740 717 838 951 b 871 481 888 958 865 719 b 815 479 851 479 833 479 b 619 496 750 479 685 488 z m 463 418 b 175 119 367 249 269 119 b 125 181 142 119 125 151 b 157 265 125 210 142 240 b 431 418 218 365 318 418 b 463 418 442 418 453 418 z "},"Á":{"ha":1181,"x_min":0,"x_max":0,"o":"m 794 1426 b 799 1406 794 1419 796 1413 l 806 1401 b 969 1569 831 1401 968 1544 b 936 1594 971 1585 949 1594 b 794 1426 897 1594 799 1463 z m 1144 525 b 997 494 1094 525 1046 504 b 1013 1104 993 744 1013 1004 b 968 1229 1013 1135 1015 1229 b 511 507 840 1229 679 828 b 457 508 493 508 475 508 b 313 485 407 508 358 503 b 44 165 192 438 44 304 b 161 22 44 97 85 22 b 572 411 304 22 449 200 b 875 389 678 401 751 385 b 1103 -111 889 126 943 -111 b 1160 -81 1122 -111 1160 -107 l 1158 -72 b 1158 -69 1158 -71 1158 -71 b 1133 -57 1150 -65 1142 -61 b 1001 399 1044 -10 1010 182 l 1006 400 b 1174 501 1061 407 1174 428 b 1144 525 1174 522 1163 525 z m 619 496 b 888 1046 740 717 838 951 b 871 481 888 958 865 719 b 815 479 851 479 833 479 b 619 496 750 479 685 488 z m 463 418 b 175 119 367 249 269 119 b 125 181 142 119 125 151 b 157 265 125 210 142 240 b 431 418 218 365 318 418 b 463 418 442 418 453 418 z "},"Â":{"ha":1181,"x_min":0,"x_max":0,"o":"m 769 1403 b 892 1528 813 1403 857 1506 b 989 1396 915 1501 943 1396 b 1006 1404 994 1396 1001 1399 l 1008 1410 l 1008 1411 b 944 1600 1010 1426 954 1589 b 913 1611 936 1608 925 1611 b 899 1617 908 1614 904 1617 b 758 1431 872 1617 769 1460 b 769 1403 758 1419 761 1411 z m 1144 525 b 997 494 1094 525 1046 504 b 1013 1104 993 744 1013 1004 b 968 1229 1013 1135 1015 1229 b 511 507 840 1229 679 828 b 457 508 493 508 475 508 b 313 485 407 508 358 503 b 44 165 192 438 44 304 b 161 22 44 97 85 22 b 572 411 304 22 449 200 b 875 389 678 401 751 385 b 1103 -111 889 126 943 -111 b 1160 -81 1122 -111 1160 -107 l 1158 -72 b 1158 -69 1158 -71 1158 -71 b 1133 -57 1150 -65 1142 -61 b 1001 399 1044 -10 1010 182 l 1006 400 b 1174 501 1061 407 1174 428 b 1144 525 1174 522 1163 525 z m 619 496 b 888 1046 740 717 838 951 b 871 481 888 958 865 719 b 815 479 851 479 833 479 b 619 496 750 479 685 488 z m 463 418 b 175 119 367 249 269 119 b 125 181 142 119 125 151 b 157 265 125 210 142 240 b 431 418 218 365 318 418 b 463 418 442 418 453 418 z "},"Ã":{"ha":1181,"x_min":0,"x_max":0,"o":"m 689 1443 b 697 1428 689 1438 689 1428 b 804 1479 708 1428 756 1479 b 938 1429 844 1479 882 1429 b 1074 1536 988 1429 1074 1471 b 1061 1556 1074 1544 1069 1556 b 958 1500 1039 1556 1003 1500 b 803 1561 906 1500 860 1561 b 689 1443 740 1561 689 1504 z m 1144 525 b 997 494 1094 525 1046 504 b 1013 1104 993 744 1013 1004 b 968 1229 1013 1135 1015 1229 b 511 507 840 1229 679 828 b 457 508 493 508 475 508 b 313 485 407 508 358 503 b 44 165 192 438 44 304 b 161 22 44 97 85 22 b 572 411 304 22 449 200 b 875 389 678 401 751 385 b 1103 -111 889 126 943 -111 b 1160 -81 1122 -111 1160 -107 l 1158 -72 b 1158 -69 1158 -71 1158 -71 b 1133 -57 1150 -65 1142 -61 b 1001 399 1044 -10 1010 182 l 1006 400 b 1174 501 1061 407 1174 428 b 1144 525 1174 522 1163 525 z m 619 496 b 888 1046 740 717 838 951 b 871 481 888 958 865 719 b 815 479 851 479 833 479 b 619 496 750 479 685 488 z m 463 418 b 175 119 367 249 269 119 b 125 181 142 119 125 151 b 157 265 125 210 142 240 b 431 418 218 365 318 418 b 463 418 442 418 453 418 z "},"Ä":{"ha":1181,"x_min":0,"x_max":0,"o":"m 964 1560 b 914 1494 925 1560 917 1526 b 963 1429 911 1463 926 1429 b 1026 1490 996 1429 1024 1458 b 964 1560 1029 1518 992 1560 z m 736 1504 b 774 1443 735 1479 744 1443 b 824 1504 794 1443 822 1486 b 793 1547 826 1525 817 1547 b 736 1504 756 1547 740 1546 z m 1144 525 b 997 494 1094 525 1046 504 b 1013 1104 993 744 1013 1004 b 968 1229 1013 1135 1015 1229 b 511 507 840 1229 679 828 b 457 508 493 508 475 508 b 313 485 407 508 358 503 b 44 165 192 438 44 304 b 161 22 44 97 85 22 b 572 411 304 22 449 200 b 875 389 678 401 751 385 b 1103 -111 889 126 943 -111 b 1160 -81 1122 -111 1160 -107 l 1158 -72 b 1158 -69 1158 -71 1158 -71 b 1133 -57 1150 -65 1142 -61 b 1001 399 1044 -10 1010 182 l 1006 400 b 1174 501 1061 407 1174 428 b 1144 525 1174 522 1163 525 z m 619 496 b 888 1046 740 717 838 951 b 871 481 888 958 865 719 b 815 479 851 479 833 479 b 619 496 750 479 685 488 z m 463 418 b 175 119 367 249 269 119 b 125 181 142 119 125 151 b 157 265 125 210 142 240 b 431 418 218 365 318 418 b 463 418 442 418 453 418 z "},"Å":{"ha":1181,"x_min":0,"x_max":0,"o":"m 789 1472 b 847 1400 786 1432 804 1400 b 976 1521 908 1400 971 1460 b 904 1607 981 1567 951 1607 b 789 1472 838 1607 794 1531 z m 922 1535 b 857 1458 919 1504 892 1458 b 846 1474 847 1458 844 1465 b 915 1557 847 1493 894 1557 b 922 1535 922 1553 924 1543 z m 1144 525 b 997 494 1094 525 1046 504 b 1013 1104 993 744 1013 1004 b 968 1229 1013 1135 1015 1229 b 511 507 840 1229 679 828 b 457 508 493 508 475 508 b 313 485 407 508 358 503 b 44 165 192 438 44 304 b 161 22 44 97 85 22 b 572 411 304 22 449 200 b 875 389 678 401 751 385 b 1103 -111 889 126 943 -111 b 1160 -81 1122 -111 1160 -107 l 1158 -72 b 1158 -69 1158 -71 1158 -71 b 1133 -57 1150 -65 1142 -61 b 1001 399 1044 -10 1010 182 l 1006 400 b 1174 501 1061 407 1174 428 b 1144 525 1174 522 1163 525 z m 619 496 b 888 1046 740 717 838 951 b 871 481 888 958 865 719 b 815 479 851 479 833 479 b 619 496 750 479 685 488 z m 463 418 b 175 119 367 249 269 119 b 125 181 142 119 125 151 b 157 265 125 210 142 240 b 431 418 218 365 318 418 b 463 418 442 418 453 418 z "},"Æ":{"ha":1772,"x_min":0,"x_max":0,"o":"m 1144 525 b 997 494 1094 525 1046 504 b 1013 1104 993 744 1013 1004 b 968 1229 1013 1135 1015 1229 b 511 507 840 1229 679 828 b 457 508 493 508 475 508 b 313 485 407 508 358 503 b 44 165 192 438 44 304 b 161 22 44 97 85 22 b 572 411 304 22 449 200 b 875 389 678 401 751 385 b 1028 -90 886 172 925 -26 b 1211 -158 1078 -133 1142 -158 b 1843 368 1501 -158 1717 153 b 1897 472 1853 386 1897 458 b 1878 500 1897 490 1889 500 b 1854 489 1871 500 1863 497 b 1239 -75 1825 463 1497 -75 b 1068 129 1150 -75 1068 21 b 1356 451 1068 299 1204 426 b 1483 518 1386 457 1483 454 b 1256 889 1483 563 1256 681 b 1510 1156 1256 1058 1406 1156 b 1654 1006 1590 1156 1654 1082 b 1543 906 1654 947 1608 906 b 1476 856 1500 906 1476 888 b 1569 786 1476 815 1515 786 b 1757 1010 1671 786 1757 888 b 1515 1250 1757 1149 1650 1250 b 1111 871 1351 1250 1111 1126 b 1308 544 1111 713 1221 607 b 1174 496 1261 533 1215 517 b 1144 525 1174 519 1168 525 z m 619 496 b 888 1046 740 717 838 951 b 871 481 888 958 865 719 b 815 479 851 479 833 479 b 619 496 750 479 685 488 z m 463 418 b 175 119 367 249 269 119 b 125 181 142 119 125 151 b 157 265 125 210 142 240 b 431 418 218 365 318 418 b 463 418 442 418 453 418 z m 1003 360 b 1000 399 1001 372 1000 386 b 1001 399 1001 399 1001 399 l 1006 400 b 1044 406 1018 401 1031 403 b 1003 360 1029 392 1015 376 z "},"Ç":{"ha":778,"x_min":0,"x_max":0,"o":"m 622 1208 b 142 631 372 1208 197 831 b 93 288 110 519 93 403 b 315 -111 93 143 132 -100 b 297 -172 304 -136 297 -161 b 394 -214 297 -200 372 -214 b 399 -239 397 -222 399 -231 b 389 -279 399 -251 394 -268 b 369 -286 383 -282 376 -286 l 360 -279 b 322 -269 346 -279 336 -269 b 308 -292 311 -269 308 -282 b 372 -346 308 -322 344 -346 b 465 -228 432 -346 465 -281 b 371 -147 465 -160 415 -171 b 385 -104 372 -133 378 -118 b 785 297 557 -61 699 165 b 896 499 813 339 890 449 b 878 514 897 507 886 514 b 364 -14 799 514 568 -14 b 231 249 243 -14 231 163 b 265 507 231 335 246 424 b 618 1111 297 644 436 1111 b 688 1008 671 1111 688 1050 b 494 803 688 844 494 883 b 563 757 494 771 538 757 b 783 1028 701 757 783 903 b 622 1208 783 1133 733 1208 z "},"Ð":{"ha":904,"x_min":0,"x_max":0,"o":"m 118 463 b 133 463 124 463 128 463 b 126 326 129 417 126 372 b 175 213 126 296 128 213 b 233 325 219 213 226 294 b 276 469 244 374 258 422 b 443 519 368 478 443 493 b 436 538 443 525 439 535 b 310 551 428 546 356 550 b 314 561 311 554 313 558 l 321 579 b 701 1163 363 682 596 1163 b 750 1024 744 1163 750 1053 b 708 625 750 904 738 742 b 233 22 514 467 233 207 b 356 -103 233 -54 281 -103 b 833 556 589 -103 792 340 b 847 618 838 576 842 596 b 969 706 917 665 969 688 b 940 732 969 722 956 732 b 863 703 921 732 889 718 b 886 921 876 775 886 847 b 721 1244 886 1026 868 1244 b 276 613 511 1244 326 775 b 386 1129 300 788 356 956 b 393 1189 389 1149 393 1168 b 358 1233 393 1215 389 1233 l 349 1232 b 343 1232 347 1232 344 1232 b 143 550 256 1232 160 678 b 54 503 97 544 57 532 b 118 463 51 469 93 463 z m 381 -6 b 319 65 340 -6 319 19 b 688 533 319 206 514 393 b 381 -6 638 332 526 -6 z "},"Đ":{"ha":904,"x_min":0,"x_max":0,"o":"m 118 463 b 133 463 124 463 128 463 b 126 326 129 417 126 372 b 175 213 126 296 128 213 b 233 325 219 213 226 294 b 276 469 244 374 258 422 b 443 519 368 478 443 493 b 436 538 443 525 439 535 b 310 551 428 546 356 550 b 314 561 311 554 313 558 l 321 579 b 701 1163 363 682 596 1163 b 750 1024 744 1163 750 1053 b 708 625 750 904 738 742 b 233 22 514 467 233 207 b 356 -103 233 -54 281 -103 b 833 556 589 -103 792 340 b 847 618 838 576 842 596 b 969 706 917 665 969 688 b 940 732 969 722 956 732 b 863 703 921 732 889 718 b 886 921 876 775 886 847 b 721 1244 886 1026 868 1244 b 276 613 511 1244 326 775 b 386 1129 300 788 356 956 b 393 1189 389 1149 393 1168 b 358 1233 393 1215 389 1233 l 349 1232 b 343 1232 347 1232 344 1232 b 143 550 256 1232 160 678 b 54 503 97 544 57 532 b 118 463 51 469 93 463 z m 381 -6 b 319 65 340 -6 319 19 b 688 533 319 206 514 393 b 381 -6 638 332 526 -6 z "},"È":{"ha":889,"x_min":0,"x_max":0,"o":"m 657 1572 b 672 1500 654 1553 661 1517 b 789 1397 688 1479 764 1397 b 815 1421 797 1397 813 1413 b 681 1603 806 1460 719 1603 b 657 1572 663 1603 658 1588 z m 425 544 b 40 133 217 494 40 346 b 328 -158 40 -25 169 -158 b 960 368 618 -158 833 153 b 1014 472 969 386 1014 458 b 994 500 1014 490 1006 500 b 971 489 988 500 979 497 b 356 -75 942 463 614 -75 b 185 129 267 -75 185 21 b 472 451 185 299 321 426 b 600 518 503 457 600 454 b 372 889 600 563 372 681 b 626 1156 372 1058 522 1156 b 771 1006 707 1156 771 1082 b 660 906 771 947 725 906 b 593 856 617 906 593 888 b 686 786 593 815 632 786 b 874 1010 788 786 874 888 b 632 1250 874 1149 767 1250 b 228 871 468 1250 228 1126 b 425 544 228 713 338 607 z "},"É":{"ha":889,"x_min":0,"x_max":0,"o":"m 649 1426 b 653 1406 649 1419 650 1413 l 660 1401 b 824 1569 685 1401 822 1544 b 790 1594 825 1585 803 1594 b 649 1426 751 1594 653 1463 z m 425 544 b 40 133 217 494 40 346 b 328 -158 40 -25 169 -158 b 960 368 618 -158 833 153 b 1014 472 969 386 1014 458 b 994 500 1014 490 1006 500 b 971 489 988 500 979 497 b 356 -75 942 463 614 -75 b 185 129 267 -75 185 21 b 472 451 185 299 321 426 b 600 518 503 457 600 454 b 372 889 600 563 372 681 b 626 1156 372 1058 522 1156 b 771 1006 707 1156 771 1082 b 660 906 771 947 725 906 b 593 856 617 906 593 888 b 686 786 593 815 632 786 b 874 1010 788 786 874 888 b 632 1250 874 1149 767 1250 b 228 871 468 1250 228 1126 b 425 544 228 713 338 607 z "},"Ê":{"ha":889,"x_min":0,"x_max":0,"o":"m 624 1403 b 746 1528 667 1403 711 1506 b 843 1396 769 1501 797 1396 b 860 1404 849 1396 856 1399 l 863 1410 l 863 1411 b 799 1600 864 1426 808 1589 b 767 1611 790 1608 779 1611 b 753 1617 763 1614 758 1617 b 613 1431 726 1617 624 1460 b 624 1403 613 1419 615 1411 z m 425 544 b 40 133 217 494 40 346 b 328 -158 40 -25 169 -158 b 960 368 618 -158 833 153 b 1014 472 969 386 1014 458 b 994 500 1014 490 1006 500 b 971 489 988 500 979 497 b 356 -75 942 463 614 -75 b 185 129 267 -75 185 21 b 472 451 185 299 321 426 b 600 518 503 457 600 454 b 372 889 600 563 372 681 b 626 1156 372 1058 522 1156 b 771 1006 707 1156 771 1082 b 660 906 771 947 725 906 b 593 856 617 906 593 888 b 686 786 593 815 632 786 b 874 1010 788 786 874 888 b 632 1250 874 1149 767 1250 b 228 871 468 1250 228 1126 b 425 544 228 713 338 607 z "},"Ë":{"ha":889,"x_min":0,"x_max":0,"o":"m 818 1560 b 768 1494 779 1560 771 1526 b 817 1429 765 1463 781 1429 b 881 1490 850 1429 878 1458 b 818 1560 883 1518 846 1560 z m 590 1504 b 628 1443 589 1479 599 1443 b 678 1504 649 1443 676 1486 b 647 1547 681 1525 671 1547 b 590 1504 610 1547 594 1546 z m 425 544 b 40 133 217 494 40 346 b 328 -158 40 -25 169 -158 b 960 368 618 -158 833 153 b 1014 472 969 386 1014 458 b 994 500 1014 490 1006 500 b 971 489 988 500 979 497 b 356 -75 942 463 614 -75 b 185 129 267 -75 185 21 b 472 451 185 299 321 426 b 600 518 503 457 600 454 b 372 889 600 563 372 681 b 626 1156 372 1058 522 1156 b 771 1006 707 1156 771 1082 b 660 906 771 947 725 906 b 593 856 617 906 593 888 b 686 786 593 815 632 786 b 874 1010 788 786 874 888 b 632 1250 874 1149 767 1250 b 228 871 468 1250 228 1126 b 425 544 228 713 338 607 z "},"Ì":{"ha":553,"x_min":0,"x_max":0,"o":"m 489 1572 b 504 1500 486 1553 493 1517 b 621 1397 519 1479 596 1397 b 647 1421 629 1397 644 1413 b 513 1603 638 1460 551 1603 b 489 1572 494 1603 490 1588 z m 28 -67 b 96 -110 28 -104 65 -110 b 385 -99 192 -110 289 -99 b 504 -51 426 -99 496 -107 b 504 -42 504 -47 504 -46 b 397 -17 504 -12 414 -17 b 379 -17 390 -17 385 -17 l 343 -19 b 325 -19 338 -19 332 -19 b 557 1140 325 279 457 863 b 589 1143 568 1143 578 1143 b 731 1188 633 1143 731 1131 b 669 1224 731 1229 703 1224 l 515 1224 b 296 1219 432 1224 347 1226 b 218 1179 271 1217 218 1215 b 265 1135 218 1149 235 1135 l 417 1138 b 193 -15 299 768 218 369 b 28 -67 156 -18 28 -12 z "},"Í":{"ha":553,"x_min":0,"x_max":0,"o":"m 481 1426 b 485 1406 481 1419 482 1413 l 492 1401 b 656 1569 517 1401 654 1544 b 622 1594 657 1585 635 1594 b 481 1426 583 1594 485 1463 z m 28 -67 b 96 -110 28 -104 65 -110 b 385 -99 192 -110 289 -99 b 504 -51 426 -99 496 -107 b 504 -42 504 -47 504 -46 b 397 -17 504 -12 414 -17 b 379 -17 390 -17 385 -17 l 343 -19 b 325 -19 338 -19 332 -19 b 557 1140 325 279 457 863 b 589 1143 568 1143 578 1143 b 731 1188 633 1143 731 1131 b 669 1224 731 1229 703 1224 l 515 1224 b 296 1219 432 1224 347 1226 b 218 1179 271 1217 218 1215 b 265 1135 218 1149 235 1135 l 417 1138 b 193 -15 299 768 218 369 b 28 -67 156 -18 28 -12 z "},"Î":{"ha":553,"x_min":0,"x_max":0,"o":"m 456 1403 b 578 1528 499 1403 543 1506 b 675 1396 601 1501 629 1396 b 692 1404 681 1396 688 1399 l 694 1410 l 694 1411 b 631 1600 696 1426 640 1589 b 599 1611 622 1608 611 1611 b 585 1617 594 1614 590 1617 b 444 1431 558 1617 456 1460 b 456 1403 444 1419 447 1411 z m 28 -67 b 96 -110 28 -104 65 -110 b 385 -99 192 -110 289 -99 b 504 -51 426 -99 496 -107 b 504 -42 504 -47 504 -46 b 397 -17 504 -12 414 -17 b 379 -17 390 -17 385 -17 l 343 -19 b 325 -19 338 -19 332 -19 b 557 1140 325 279 457 863 b 589 1143 568 1143 578 1143 b 731 1188 633 1143 731 1131 b 669 1224 731 1229 703 1224 l 515 1224 b 296 1219 432 1224 347 1226 b 218 1179 271 1217 218 1215 b 265 1135 218 1149 235 1135 l 417 1138 b 193 -15 299 768 218 369 b 28 -67 156 -18 28 -12 z "},"Ï":{"ha":553,"x_min":0,"x_max":0,"o":"m 650 1560 b 600 1494 611 1560 603 1526 b 649 1429 597 1463 613 1429 b 713 1490 682 1429 710 1458 b 650 1560 715 1518 678 1560 z m 422 1504 b 460 1443 421 1479 431 1443 b 510 1504 481 1443 508 1486 b 479 1547 513 1525 503 1547 b 422 1504 442 1547 426 1546 z m 28 -67 b 96 -110 28 -104 65 -110 b 385 -99 192 -110 289 -99 b 504 -51 426 -99 496 -107 b 504 -42 504 -47 504 -46 b 397 -17 504 -12 414 -17 b 379 -17 390 -17 385 -17 l 343 -19 b 325 -19 338 -19 332 -19 b 557 1140 325 279 457 863 b 589 1143 568 1143 578 1143 b 731 1188 633 1143 731 1131 b 669 1224 731 1229 703 1224 l 515 1224 b 296 1219 432 1224 347 1226 b 218 1179 271 1217 218 1215 b 265 1135 218 1149 235 1135 l 417 1138 b 193 -15 299 768 218 369 b 28 -67 156 -18 28 -12 z "},"Ł":{"ha":767,"x_min":0,"x_max":0,"o":"m 296 -40 b 556 -136 375 -75 436 -136 b 804 -22 654 -136 739 -96 b 868 89 831 7 868 47 b 854 108 868 96 865 108 b 829 97 847 108 840 106 b 572 -33 783 65 697 -33 b 342 58 494 -33 426 22 b 419 439 376 161 400 301 b 807 975 635 536 807 707 b 618 1244 807 1086 753 1244 b 346 886 464 1244 381 1029 b 235 813 289 872 231 850 b 304 786 238 779 281 781 b 326 790 311 788 318 789 b 296 556 313 713 306 635 b 286 471 294 539 292 508 b 149 422 240 451 192 435 b 106 390 135 418 106 413 b 158 358 106 360 139 354 b 274 385 197 365 235 374 b 211 89 260 292 239 181 b -24 -51 129 89 -24 53 b 94 -165 -24 -111 35 -165 b 289 -51 163 -165 250 -106 z m 433 540 b 475 828 449 650 461 754 b 613 903 556 851 618 879 b 603 919 611 908 606 918 b 493 913 593 926 538 919 b 618 1147 515 1003 558 1147 b 703 946 679 1147 703 990 b 433 540 703 747 572 619 z m 63 -60 b 169 -19 63 -31 131 -22 b 93 -85 147 -60 122 -85 b 63 -60 85 -85 63 -78 z "},"Ñ":{"ha":972,"x_min":0,"x_max":0,"o":"m 585 1443 b 593 1428 585 1438 585 1428 b 700 1479 604 1428 651 1479 b 833 1429 740 1479 778 1429 b 969 1536 883 1429 969 1471 b 957 1556 969 1544 965 1556 b 854 1500 935 1556 899 1500 b 699 1561 801 1500 756 1561 b 585 1443 636 1561 585 1504 z m 783 932 b 678 447 783 793 715 610 b 603 3 644 301 603 154 b 721 -181 603 -78 618 -181 b 1085 486 808 -181 1085 413 b 1061 518 1085 500 1078 518 b 965 336 1029 518 979 369 b 746 -56 933 263 794 -10 b 724 1 722 -46 724 -19 b 801 368 724 128 769 247 b 917 893 844 532 917 715 b 736 1218 917 1078 839 1218 b 264 319 489 1218 313 496 b 390 1067 301 565 322 826 b 394 1099 393 1076 394 1088 b 338 1181 397 1142 388 1178 b 257 990 310 1182 264 1018 b 121 264 199 756 144 504 b 101 29 114 186 101 108 b 149 -42 101 -7 101 -42 b 221 -6 185 -42 207 -37 b 700 1107 315 211 535 1107 b 783 932 749 1107 783 1033 z "},"Ò":{"ha":903,"x_min":0,"x_max":0,"o":"m 664 1572 b 679 1500 661 1553 668 1517 b 796 1397 694 1479 771 1397 b 822 1421 804 1397 819 1413 b 688 1603 813 1460 726 1603 b 664 1572 669 1603 665 1588 z m 518 1219 b 103 792 285 1224 106 1039 b 153 571 101 708 119 635 b 76 229 107 456 78 338 b 338 -133 72 15 178 -131 b 771 338 524 -136 688 58 b 968 442 847 363 915 401 b 1015 493 996 463 1015 483 b 1003 514 1015 497 1010 507 b 796 433 932 485 863 454 b 829 736 817 528 828 631 b 746 1113 832 908 804 1033 b 774 1122 756 1117 764 1119 b 831 1168 811 1133 831 1149 b 779 1206 831 1190 808 1206 b 707 1190 763 1206 736 1200 l 675 1178 b 518 1219 632 1204 579 1218 z m 211 697 b 199 794 203 732 199 765 b 532 1136 199 988 371 1139 b 583 1131 550 1136 568 1135 b 211 697 439 1039 306 876 z m 276 554 b 679 1074 360 758 500 946 b 749 831 725 1022 749 940 l 749 806 b 690 407 749 672 726 533 b 608 401 663 403 635 401 b 276 554 442 406 338 471 z m 240 454 b 626 314 335 365 471 315 b 660 315 638 314 649 314 b 354 -51 582 103 465 -54 b 201 207 264 -49 200 60 b 240 454 203 288 215 372 z "},"Ó":{"ha":903,"x_min":0,"x_max":0,"o":"m 656 1426 b 660 1406 656 1419 657 1413 l 667 1401 b 831 1569 692 1401 829 1544 b 797 1594 832 1585 810 1594 b 656 1426 758 1594 660 1463 z m 518 1219 b 103 792 285 1224 106 1039 b 153 571 101 708 119 635 b 76 229 107 456 78 338 b 338 -133 72 15 178 -131 b 771 338 524 -136 688 58 b 968 442 847 363 915 401 b 1015 493 996 463 1015 483 b 1003 514 1015 497 1010 507 b 796 433 932 485 863 454 b 829 736 817 528 828 631 b 746 1113 832 908 804 1033 b 774 1122 756 1117 764 1119 b 831 1168 811 1133 831 1149 b 779 1206 831 1190 808 1206 b 707 1190 763 1206 736 1200 l 675 1178 b 518 1219 632 1204 579 1218 z m 211 697 b 199 794 203 732 199 765 b 532 1136 199 988 371 1139 b 583 1131 550 1136 568 1135 b 211 697 439 1039 306 876 z m 276 554 b 679 1074 360 758 500 946 b 749 831 725 1022 749 940 l 749 806 b 690 407 749 672 726 533 b 608 401 663 403 635 401 b 276 554 442 406 338 471 z m 240 454 b 626 314 335 365 471 315 b 660 315 638 314 649 314 b 354 -51 582 103 465 -54 b 201 207 264 -49 200 60 b 240 454 203 288 215 372 z "},"Ô":{"ha":903,"x_min":0,"x_max":0,"o":"m 631 1403 b 753 1528 674 1403 718 1506 b 850 1396 776 1501 804 1396 b 867 1404 856 1396 863 1399 l 869 1410 l 869 1411 b 806 1600 871 1426 815 1589 b 774 1611 797 1608 786 1611 b 760 1617 769 1614 765 1617 b 619 1431 733 1617 631 1460 b 631 1403 619 1419 622 1411 z m 518 1219 b 103 792 285 1224 106 1039 b 153 571 101 708 119 635 b 76 229 107 456 78 338 b 338 -133 72 15 178 -131 b 771 338 524 -136 688 58 b 968 442 847 363 915 401 b 1015 493 996 463 1015 483 b 1003 514 1015 497 1010 507 b 796 433 932 485 863 454 b 829 736 817 528 828 631 b 746 1113 832 908 804 1033 b 774 1122 756 1117 764 1119 b 831 1168 811 1133 831 1149 b 779 1206 831 1190 808 1206 b 707 1190 763 1206 736 1200 l 675 1178 b 518 1219 632 1204 579 1218 z m 211 697 b 199 794 203 732 199 765 b 532 1136 199 988 371 1139 b 583 1131 550 1136 568 1135 b 211 697 439 1039 306 876 z m 276 554 b 679 1074 360 758 500 946 b 749 831 725 1022 749 940 l 749 806 b 690 407 749 672 726 533 b 608 401 663 403 635 401 b 276 554 442 406 338 471 z m 240 454 b 626 314 335 365 471 315 b 660 315 638 314 649 314 b 354 -51 582 103 465 -54 b 201 207 264 -49 200 60 b 240 454 203 288 215 372 z "},"Õ":{"ha":903,"x_min":0,"x_max":0,"o":"m 550 1443 b 558 1428 550 1438 550 1428 b 665 1479 569 1428 617 1479 b 799 1429 706 1479 743 1429 b 935 1536 849 1429 935 1471 b 922 1556 935 1544 931 1556 b 819 1500 900 1556 864 1500 b 664 1561 767 1500 721 1561 b 550 1443 601 1561 550 1504 z m 518 1219 b 103 792 285 1224 106 1039 b 153 571 101 708 119 635 b 76 229 107 456 78 338 b 338 -133 72 15 178 -131 b 771 338 524 -136 688 58 b 968 442 847 363 915 401 b 1015 493 996 463 1015 483 b 1003 514 1015 497 1010 507 b 796 433 932 485 863 454 b 829 736 817 528 828 631 b 746 1113 832 908 804 1033 b 774 1122 756 1117 764 1119 b 831 1168 811 1133 831 1149 b 779 1206 831 1190 808 1206 b 707 1190 763 1206 736 1200 l 675 1178 b 518 1219 632 1204 579 1218 z m 211 697 b 199 794 203 732 199 765 b 532 1136 199 988 371 1139 b 583 1131 550 1136 568 1135 b 211 697 439 1039 306 876 z m 276 554 b 679 1074 360 758 500 946 b 749 831 725 1022 749 940 l 749 806 b 690 407 749 672 726 533 b 608 401 663 403 635 401 b 276 554 442 406 338 471 z m 240 454 b 626 314 335 365 471 315 b 660 315 638 314 649 314 b 354 -51 582 103 465 -54 b 201 207 264 -49 200 60 b 240 454 203 288 215 372 z "},"Ö":{"ha":903,"x_min":0,"x_max":0,"o":"m 825 1560 b 775 1494 786 1560 778 1526 b 824 1429 772 1463 788 1429 b 888 1490 857 1429 885 1458 b 825 1560 890 1518 853 1560 z m 597 1504 b 635 1443 596 1479 606 1443 b 685 1504 656 1443 683 1486 b 654 1547 688 1525 678 1547 b 597 1504 617 1547 601 1546 z m 518 1219 b 103 792 285 1224 106 1039 b 153 571 101 708 119 635 b 76 229 107 456 78 338 b 338 -133 72 15 178 -131 b 771 338 524 -136 688 58 b 968 442 847 363 915 401 b 1015 493 996 463 1015 483 b 1003 514 1015 497 1010 507 b 796 433 932 485 863 454 b 829 736 817 528 828 631 b 746 1113 832 908 804 1033 b 774 1122 756 1117 764 1119 b 831 1168 811 1133 831 1149 b 779 1206 831 1190 808 1206 b 707 1190 763 1206 736 1200 l 675 1178 b 518 1219 632 1204 579 1218 z m 211 697 b 199 794 203 732 199 765 b 532 1136 199 988 371 1139 b 583 1131 550 1136 568 1135 b 211 697 439 1039 306 876 z m 276 554 b 679 1074 360 758 500 946 b 749 831 725 1022 749 940 l 749 806 b 690 407 749 672 726 533 b 608 401 663 403 635 401 b 276 554 442 406 338 471 z m 240 454 b 626 314 335 365 471 315 b 660 315 638 314 649 314 b 354 -51 582 103 465 -54 b 201 207 264 -49 200 60 b 240 454 203 288 215 372 z "},"Ø":{"ha":903,"x_min":0,"x_max":0,"o":"m 518 1219 b 103 792 285 1224 106 1039 b 153 571 101 708 119 635 b 76 229 107 456 78 338 b 140 -24 75 126 99 39 b 88 -108 110 -68 90 -99 b 115 -156 81 -137 92 -149 b 192 -82 125 -157 154 -126 l 193 -82 b 338 -133 233 -115 282 -132 b 771 338 524 -136 688 58 b 968 442 847 363 915 401 b 1015 493 996 463 1015 483 b 1003 514 1015 497 1010 507 b 796 433 932 485 863 454 b 829 744 818 535 829 640 b 846 765 835 751 840 758 b 961 928 869 794 950 886 b 935 974 965 943 961 967 b 821 903 896 985 851 940 b 746 1113 808 992 783 1061 b 774 1122 756 1117 764 1119 b 831 1168 811 1133 831 1149 b 779 1206 831 1190 808 1206 b 707 1190 763 1206 736 1200 l 675 1178 b 518 1219 632 1204 579 1218 z m 211 697 b 199 794 203 732 199 765 b 532 1136 199 988 371 1139 b 583 1131 550 1136 568 1135 b 211 697 439 1039 306 876 z m 276 554 b 679 1074 360 758 500 946 b 749 831 725 1022 749 940 l 749 808 b 463 424 682 719 574 574 b 276 554 378 450 317 499 z m 565 404 b 736 625 622 478 678 550 b 690 407 726 550 710 478 b 608 401 663 403 635 401 b 565 404 593 401 579 403 z m 240 454 b 408 351 288 410 344 375 b 217 88 339 257 272 165 b 201 207 207 122 201 163 b 240 454 203 288 215 372 z m 260 1 b 358 131 306 60 346 114 b 506 325 410 199 458 263 b 626 314 544 318 585 314 b 660 315 638 314 649 314 b 354 -51 582 103 465 -54 b 260 1 317 -50 285 -31 z "},"Œ":{"ha":1472,"x_min":0,"x_max":0,"o":"m 518 1219 b 103 792 285 1224 106 1039 b 153 571 101 708 119 635 b 76 229 107 456 78 338 b 338 -133 72 15 178 -131 b 636 50 450 -135 553 -67 b 911 -158 672 -69 782 -158 b 1543 368 1201 -158 1417 153 b 1597 472 1553 386 1597 458 b 1578 500 1597 490 1589 500 b 1554 489 1571 500 1563 497 b 939 -75 1525 463 1197 -75 b 768 129 850 -75 768 21 b 1056 451 768 299 904 426 b 1183 518 1086 457 1183 454 b 956 889 1183 563 956 681 b 1210 1156 956 1058 1106 1156 b 1354 1006 1290 1156 1354 1082 b 1243 906 1354 947 1308 906 b 1176 856 1200 906 1176 888 b 1269 786 1176 815 1215 786 b 1457 1010 1371 786 1457 888 b 1215 1250 1457 1149 1350 1250 b 815 931 1065 1250 849 1146 b 746 1113 801 1006 779 1067 b 774 1122 756 1117 764 1119 b 831 1168 811 1133 831 1149 b 779 1206 831 1190 808 1206 b 707 1190 763 1206 736 1200 l 675 1178 b 518 1219 632 1204 579 1218 z m 211 697 b 199 794 203 732 199 765 b 532 1136 199 988 371 1139 b 583 1131 550 1136 568 1135 b 211 697 439 1039 306 876 z m 276 554 b 679 1074 360 758 500 946 b 749 831 725 1022 749 940 l 749 806 b 690 407 749 672 726 533 b 608 401 663 403 635 401 b 276 554 442 406 338 471 z m 1008 544 b 799 451 932 526 860 494 b 829 763 819 554 829 658 b 1008 544 864 663 943 592 z m 240 454 b 626 314 335 365 471 315 b 660 315 638 314 649 314 b 354 -51 582 103 465 -54 b 201 207 264 -49 200 60 b 240 454 203 288 215 372 z "},"Š":{"ha":781,"x_min":0,"x_max":0,"o":"m 633 1390 b 686 1407 651 1390 669 1394 b 810 1615 706 1424 808 1592 b 797 1626 811 1624 804 1626 b 669 1464 740 1600 706 1511 b 592 1606 663 1490 619 1606 b 558 1560 568 1606 560 1579 b 633 1390 554 1519 596 1390 z m 376 499 b 19 40 189 367 19 200 b 269 -176 19 -85 122 -176 b 724 249 493 -176 724 32 b 568 517 724 368 653 447 b 878 739 732 621 878 700 b 860 753 878 750 869 753 b 492 575 828 753 665 682 b 283 844 386 653 283 726 b 572 1108 283 978 443 1108 b 703 1001 669 1108 703 1057 b 486 824 703 867 486 889 b 538 782 486 786 506 782 b 794 1010 654 782 794 846 b 575 1199 794 1136 690 1199 b 144 833 360 1199 144 1058 b 376 499 144 686 263 589 z m 583 229 b 240 -78 583 78 419 -78 b 125 25 160 -78 125 -46 b 451 439 125 175 282 319 b 583 229 525 376 583 311 z "},"Ù":{"ha":886,"x_min":0,"x_max":0,"o":"m 656 1572 b 671 1500 653 1553 660 1517 b 788 1397 686 1479 763 1397 b 814 1421 796 1397 811 1413 b 679 1603 804 1460 718 1603 b 656 1572 661 1603 657 1588 z m 711 -139 b 735 106 764 -139 735 17 b 863 968 735 339 793 732 b 907 1121 876 1017 907 1069 b 831 1181 907 1169 872 1181 b 668 750 757 1181 688 818 b 332 56 638 643 449 56 b 236 253 242 56 236 189 b 240 347 236 285 238 315 b 396 1124 258 571 353 890 b 326 1199 406 1174 371 1194 b 254 1040 300 1201 260 1064 b 100 214 193 807 100 454 b 279 -69 100 93 124 -69 b 650 472 454 -69 596 301 b 610 90 619 361 610 206 b 711 -139 610 24 631 -139 z "},"Ú":{"ha":886,"x_min":0,"x_max":0,"o":"m 647 1426 b 651 1406 647 1419 649 1413 l 658 1401 b 822 1569 683 1401 821 1544 b 789 1594 824 1585 801 1594 b 647 1426 750 1594 651 1463 z m 711 -139 b 735 106 764 -139 735 17 b 863 968 735 339 793 732 b 907 1121 876 1017 907 1069 b 831 1181 907 1169 872 1181 b 668 750 757 1181 688 818 b 332 56 638 643 449 56 b 236 253 242 56 236 189 b 240 347 236 285 238 315 b 396 1124 258 571 353 890 b 326 1199 406 1174 371 1194 b 254 1040 300 1201 260 1064 b 100 214 193 807 100 454 b 279 -69 100 93 124 -69 b 650 472 454 -69 596 301 b 610 90 619 361 610 206 b 711 -139 610 24 631 -139 z "},"Û":{"ha":886,"x_min":0,"x_max":0,"o":"m 622 1403 b 744 1528 665 1403 710 1506 b 842 1396 768 1501 796 1396 b 858 1404 847 1396 854 1399 l 861 1410 l 861 1411 b 797 1600 863 1426 807 1589 b 765 1611 789 1608 778 1611 b 751 1617 761 1614 757 1617 b 611 1431 725 1617 622 1460 b 622 1403 611 1419 614 1411 z m 711 -139 b 735 106 764 -139 735 17 b 863 968 735 339 793 732 b 907 1121 876 1017 907 1069 b 831 1181 907 1169 872 1181 b 668 750 757 1181 688 818 b 332 56 638 643 449 56 b 236 253 242 56 236 189 b 240 347 236 285 238 315 b 396 1124 258 571 353 890 b 326 1199 406 1174 371 1194 b 254 1040 300 1201 260 1064 b 100 214 193 807 100 454 b 279 -69 100 93 124 -69 b 650 472 454 -69 596 301 b 610 90 619 361 610 206 b 711 -139 610 24 631 -139 z "},"Ü":{"ha":886,"x_min":0,"x_max":0,"o":"m 817 1560 b 767 1494 778 1560 769 1526 b 815 1429 764 1463 779 1429 b 879 1490 849 1429 876 1458 b 817 1560 882 1518 844 1560 z m 589 1504 b 626 1443 588 1479 597 1443 b 676 1504 647 1443 675 1486 b 646 1547 679 1525 669 1547 b 589 1504 608 1547 593 1546 z m 711 -139 b 735 106 764 -139 735 17 b 863 968 735 339 793 732 b 907 1121 876 1017 907 1069 b 831 1181 907 1169 872 1181 b 668 750 757 1181 688 818 b 332 56 638 643 449 56 b 236 253 242 56 236 189 b 240 347 236 285 238 315 b 396 1124 258 571 353 890 b 326 1199 406 1174 371 1194 b 254 1040 300 1201 260 1064 b 100 214 193 807 100 454 b 279 -69 100 93 124 -69 b 650 472 454 -69 596 301 b 610 90 619 361 610 206 b 711 -139 610 24 631 -139 z "},"Ÿ":{"ha":960,"x_min":0,"x_max":0,"o":"m 853 1560 b 803 1494 814 1560 806 1526 b 851 1429 800 1463 815 1429 b 915 1490 885 1429 913 1458 b 853 1560 918 1518 881 1560 z m 625 1504 b 663 1443 624 1479 633 1443 b 713 1504 683 1443 711 1486 b 682 1547 715 1525 706 1547 b 625 1504 644 1547 629 1546 z m 161 -17 b 342 -193 158 -122 238 -193 b 772 217 525 -193 699 71 b 878 543 813 297 850 417 b 963 571 908 554 939 564 b 997 611 983 576 997 586 b 961 638 997 633 981 638 b 896 628 943 638 921 635 b 938 999 922 765 938 901 b 836 1186 938 1075 938 1186 b 757 1144 799 1186 776 1178 b 364 608 701 1050 460 608 b 336 672 344 608 336 626 b 486 1118 336 822 422 969 b 421 1186 504 1161 458 1186 b 193 689 328 1186 193 811 b 321 486 193 600 207 486 b 782 1014 525 486 685 865 l 782 992 b 742 665 782 883 760 774 b 721 557 736 632 729 596 b 161 -17 476 432 167 185 z m 697 457 b 426 -54 644 263 557 51 b 317 -107 400 -75 350 -107 b 265 3 275 -107 265 -26 b 697 457 268 171 538 363 z "},"Ý":{"ha":960,"x_min":0,"x_max":0,"o":"m 683 1426 b 688 1406 683 1419 685 1413 l 694 1401 b 858 1569 719 1401 857 1544 b 825 1594 860 1585 838 1594 b 683 1426 786 1594 688 1463 z m 161 -17 b 342 -193 158 -122 238 -193 b 772 217 525 -193 699 71 b 878 543 813 297 850 417 b 963 571 908 554 939 564 b 997 611 983 576 997 586 b 961 638 997 633 981 638 b 896 628 943 638 921 635 b 938 999 922 765 938 901 b 836 1186 938 1075 938 1186 b 757 1144 799 1186 776 1178 b 364 608 701 1050 460 608 b 336 672 344 608 336 626 b 486 1118 336 822 422 969 b 421 1186 504 1161 458 1186 b 193 689 328 1186 193 811 b 321 486 193 600 207 486 b 782 1014 525 486 685 865 l 782 992 b 742 665 782 883 760 774 b 721 557 736 632 729 596 b 161 -17 476 432 167 185 z m 697 457 b 426 -54 644 263 557 51 b 317 -107 400 -75 350 -107 b 265 3 275 -107 265 -26 b 697 457 268 171 538 363 z "},"Ž":{"ha":921,"x_min":0,"x_max":0,"o":"m 703 1390 b 756 1407 721 1390 739 1394 b 879 1615 775 1424 878 1592 b 867 1626 881 1624 874 1626 b 739 1464 810 1600 775 1511 b 661 1606 732 1490 689 1606 b 628 1560 638 1606 629 1579 b 703 1390 624 1519 665 1390 z m 826 1064 b 63 -44 826 857 63 -43 b 115 -119 63 -79 75 -110 b 414 -146 171 -132 288 -146 b 868 56 628 -146 868 -106 b 854 93 868 65 867 93 b 754 28 836 93 801 53 b 371 -39 672 -15 499 -39 b 226 -19 304 -39 249 -32 b 989 1101 396 131 989 914 b 899 1161 989 1154 940 1161 l 732 1161 b 229 985 551 1161 229 1196 b 339 879 229 913 281 879 b 415 931 382 879 415 901 b 386 954 415 947 406 954 b 318 993 356 954 318 964 b 556 1078 318 1061 432 1078 b 826 1064 664 1078 778 1064 z "},"ı":{"ha":278,"x_min":0,"x_max":0,"o":"m 142 194 b 394 493 226 194 394 424 b 378 514 394 506 392 514 b 178 292 326 514 217 292 b 156 338 157 292 156 324 b 222 631 156 507 222 569 b 168 675 222 667 201 675 b 49 376 96 675 49 494 b 142 194 49 318 63 194 z "},"à":{"ha":569,"x_min":0,"x_max":0,"o":"m 379 961 b 394 889 376 942 383 906 b 511 786 410 868 486 786 b 538 810 519 786 535 801 b 403 992 528 849 442 992 b 379 961 385 992 381 976 z m 132 208 b 310 394 214 208 268 338 b 282 218 297 331 282 265 b 375 111 282 150 315 111 b 467 154 410 111 439 125 b 696 499 526 217 696 471 b 678 513 696 506 686 513 b 408 208 628 513 463 208 b 394 239 399 208 394 217 b 500 601 394 349 500 551 b 435 639 500 625 475 639 b 340 556 368 639 367 600 b 232 613 326 592 286 613 b 33 375 114 613 33 515 b 132 208 33 276 74 208 z m 129 346 b 256 543 129 439 196 543 b 321 486 285 543 313 519 b 143 278 272 394 172 278 b 129 346 129 278 129 333 z "},"á":{"ha":569,"x_min":0,"x_max":0,"o":"m 369 815 b 374 794 369 808 371 801 l 381 790 b 544 958 406 790 543 933 b 511 983 546 974 524 983 b 369 815 472 983 374 851 z m 132 208 b 310 394 214 208 268 338 b 282 218 297 331 282 265 b 375 111 282 150 315 111 b 467 154 410 111 439 125 b 696 499 526 217 696 471 b 678 513 696 506 686 513 b 408 208 628 513 463 208 b 394 239 399 208 394 217 b 500 601 394 349 500 551 b 435 639 500 625 475 639 b 340 556 368 639 367 600 b 232 613 326 592 286 613 b 33 375 114 613 33 515 b 132 208 33 276 74 208 z m 129 346 b 256 543 129 439 196 543 b 321 486 285 543 313 519 b 143 278 272 394 172 278 b 129 346 129 278 129 333 z "},"â":{"ha":569,"x_min":0,"x_max":0,"o":"m 344 792 b 467 917 388 792 432 894 b 564 785 490 890 518 785 b 581 793 569 785 576 788 l 583 799 l 583 800 b 519 989 585 815 529 978 b 488 1000 511 997 500 1000 b 474 1006 483 1003 479 1006 b 333 819 447 1006 344 849 b 344 792 333 808 336 800 z m 132 208 b 310 394 214 208 268 338 b 282 218 297 331 282 265 b 375 111 282 150 315 111 b 467 154 410 111 439 125 b 696 499 526 217 696 471 b 678 513 696 506 686 513 b 408 208 628 513 463 208 b 394 239 399 208 394 217 b 500 601 394 349 500 551 b 435 639 500 625 475 639 b 340 556 368 639 367 600 b 232 613 326 592 286 613 b 33 375 114 613 33 515 b 132 208 33 276 74 208 z m 129 346 b 256 543 129 439 196 543 b 321 486 285 543 313 519 b 143 278 272 394 172 278 b 129 346 129 278 129 333 z "},"ã":{"ha":569,"x_min":0,"x_max":0,"o":"m 264 832 b 272 817 264 826 264 817 b 379 868 283 817 331 868 b 513 818 419 868 457 818 b 649 925 563 818 649 860 b 636 944 649 933 644 944 b 533 889 614 944 578 889 b 378 950 481 889 435 950 b 264 832 315 950 264 893 z m 132 208 b 310 394 214 208 268 338 b 282 218 297 331 282 265 b 375 111 282 150 315 111 b 467 154 410 111 439 125 b 696 499 526 217 696 471 b 678 513 696 506 686 513 b 408 208 628 513 463 208 b 394 239 399 208 394 217 b 500 601 394 349 500 551 b 435 639 500 625 475 639 b 340 556 368 639 367 600 b 232 613 326 592 286 613 b 33 375 114 613 33 515 b 132 208 33 276 74 208 z m 129 346 b 256 543 129 439 196 543 b 321 486 285 543 313 519 b 143 278 272 394 172 278 b 129 346 129 278 129 333 z "},"ä":{"ha":569,"x_min":0,"x_max":0,"o":"m 539 949 b 489 883 500 949 492 915 b 538 818 486 851 501 818 b 601 879 571 818 599 847 b 539 949 604 907 567 949 z m 311 893 b 349 832 310 868 319 832 b 399 893 369 832 397 875 b 368 936 401 914 392 936 b 311 893 331 936 315 935 z m 132 208 b 310 394 214 208 268 338 b 282 218 297 331 282 265 b 375 111 282 150 315 111 b 467 154 410 111 439 125 b 696 499 526 217 696 471 b 678 513 696 506 686 513 b 408 208 628 513 463 208 b 394 239 399 208 394 217 b 500 601 394 349 500 551 b 435 639 500 625 475 639 b 340 556 368 639 367 600 b 232 613 326 592 286 613 b 33 375 114 613 33 515 b 132 208 33 276 74 208 z m 129 346 b 256 543 129 439 196 543 b 321 486 285 543 313 519 b 143 278 272 394 172 278 b 129 346 129 278 129 333 z "},"å":{"ha":569,"x_min":0,"x_max":0,"o":"m 364 861 b 422 789 361 821 379 789 b 551 910 483 789 546 849 b 479 996 556 956 526 996 b 364 861 413 996 369 919 z m 497 924 b 432 847 494 893 467 847 b 421 863 422 847 419 854 b 490 946 422 882 469 946 b 497 924 497 942 499 932 z m 132 208 b 310 394 214 208 268 338 b 282 218 297 331 282 265 b 375 111 282 150 315 111 b 467 154 410 111 439 125 b 696 499 526 217 696 471 b 678 513 696 506 686 513 b 408 208 628 513 463 208 b 394 239 399 208 394 217 b 500 601 394 349 500 551 b 435 639 500 625 475 639 b 340 556 368 639 367 600 b 232 613 326 592 286 613 b 33 375 114 613 33 515 b 132 208 33 276 74 208 z m 129 346 b 256 543 129 439 196 543 b 321 486 285 543 313 519 b 143 278 272 394 172 278 b 129 346 129 278 129 333 z "},"æ":{"ha":629,"x_min":0,"x_max":0,"o":"m 444 213 b 743 489 582 213 743 379 b 742 500 743 493 743 496 b 715 514 735 508 726 514 b 488 292 679 457 564 292 b 426 382 444 292 426 346 l 426 389 b 615 610 524 394 615 517 b 531 694 615 664 586 694 b 367 594 460 694 404 653 b 340 556 357 583 349 569 b 232 613 326 592 286 613 b 33 375 114 613 33 515 b 132 208 33 276 74 208 b 306 349 199 208 264 286 b 444 213 318 285 371 213 z m 546 594 b 432 444 546 556 475 447 b 531 625 435 482 483 625 b 546 594 546 625 546 604 z m 129 346 b 256 543 129 439 196 543 b 319 489 283 543 310 521 l 317 479 b 143 278 267 389 171 278 b 129 346 129 278 129 333 z "},"ç":{"ha":417,"x_min":0,"x_max":0,"o":"m 140 -47 b 126 -69 129 -47 126 -60 b 190 -124 126 -100 163 -124 b 283 -6 250 -124 283 -58 b 189 75 283 63 233 51 b 208 129 190 93 200 111 b 472 367 321 154 424 278 b 529 486 482 385 529 472 b 503 514 529 501 519 514 b 199 194 432 453 290 194 b 143 286 167 194 143 233 b 288 629 143 375 215 629 b 314 588 303 629 314 613 b 329 476 314 543 279 476 b 399 596 374 476 399 549 b 281 713 399 663 347 713 b 36 331 110 713 36 478 b 142 129 36 221 76 146 b 115 50 126 99 115 64 b 213 8 115 22 190 8 b 217 -17 215 0 217 -8 b 207 -57 217 -29 213 -46 b 188 -64 201 -60 194 -64 l 178 -57 b 140 -47 164 -57 154 -47 z "},"đ":{"ha":694,"x_min":0,"x_max":0,"o":"m 161 264 b 361 504 244 264 321 431 b 357 397 358 481 357 426 b 485 153 357 244 396 153 b 794 504 581 153 794 393 b 793 513 794 508 794 508 b 781 514 790 514 790 514 b 526 263 711 514 606 263 b 474 417 471 263 474 378 b 483 606 474 472 476 539 b 851 1183 650 714 851 1031 b 743 1319 851 1258 803 1319 b 440 936 651 1319 518 1146 b 365 929 407 935 381 933 b 343 904 354 926 344 917 b 361 856 342 886 342 858 b 413 853 371 854 389 853 b 381 693 397 800 386 746 b 276 738 343 728 310 738 b 51 431 182 738 51 571 b 161 264 51 339 101 264 z m 578 933 b 749 1208 640 1081 714 1208 b 768 1160 761 1208 768 1192 b 678 908 768 1090 736 1001 b 660 926 678 917 668 925 b 578 933 642 929 613 932 z m 490 681 b 547 857 503 735 524 796 b 665 889 599 863 644 872 b 490 681 619 819 561 747 z m 178 431 b 294 654 178 518 244 654 b 344 606 315 654 344 619 b 200 367 344 576 229 385 b 178 431 188 367 178 399 z "},"è":{"ha":361,"x_min":0,"x_max":0,"o":"m 275 961 b 290 889 272 942 279 906 b 407 786 306 868 382 786 b 433 810 415 786 431 801 b 299 992 424 849 338 992 b 275 961 281 992 276 976 z m 176 213 b 475 489 314 213 475 379 b 474 500 475 493 475 496 b 447 514 467 508 458 514 b 219 292 411 457 296 292 b 158 382 176 292 158 346 l 158 389 b 347 610 256 394 347 517 b 263 694 347 664 318 694 b 35 378 113 694 35 504 b 176 213 35 308 92 213 z m 278 594 b 164 444 278 556 207 447 b 263 625 167 482 215 625 b 278 594 278 625 278 604 z "},"é":{"ha":361,"x_min":0,"x_max":0,"o":"m 265 815 b 269 794 265 808 267 801 l 276 790 b 440 958 301 790 439 933 b 407 983 442 974 419 983 b 265 815 368 983 269 851 z m 176 213 b 475 489 314 213 475 379 b 474 500 475 493 475 496 b 447 514 467 508 458 514 b 219 292 411 457 296 292 b 158 382 176 292 158 346 l 158 389 b 347 610 256 394 347 517 b 263 694 347 664 318 694 b 35 378 113 694 35 504 b 176 213 35 308 92 213 z m 278 594 b 164 444 278 556 207 447 b 263 625 167 482 215 625 b 278 594 278 625 278 604 z "},"ê":{"ha":361,"x_min":0,"x_max":0,"o":"m 240 792 b 363 917 283 792 328 894 b 460 785 386 890 414 785 b 476 793 465 785 472 788 l 479 799 l 479 800 b 415 989 481 815 425 978 b 383 1000 407 997 396 1000 b 369 1006 379 1003 375 1006 b 229 819 343 1006 240 849 b 240 792 229 808 232 800 z m 176 213 b 475 489 314 213 475 379 b 474 500 475 493 475 496 b 447 514 467 508 458 514 b 219 292 411 457 296 292 b 158 382 176 292 158 346 l 158 389 b 347 610 256 394 347 517 b 263 694 347 664 318 694 b 35 378 113 694 35 504 b 176 213 35 308 92 213 z m 278 594 b 164 444 278 556 207 447 b 263 625 167 482 215 625 b 278 594 278 625 278 604 z "},"ë":{"ha":361,"x_min":0,"x_max":0,"o":"m 435 949 b 385 883 396 949 388 915 b 433 818 382 851 397 818 b 497 879 467 818 494 847 b 435 949 500 907 463 949 z m 207 893 b 244 832 206 868 215 832 b 294 893 265 832 293 875 b 264 936 297 914 288 936 b 207 893 226 936 211 935 z m 176 213 b 475 489 314 213 475 379 b 474 500 475 493 475 496 b 447 514 467 508 458 514 b 219 292 411 457 296 292 b 158 382 176 292 158 346 l 158 389 b 347 610 256 394 347 517 b 263 694 347 664 318 694 b 35 378 113 694 35 504 b 176 213 35 308 92 213 z m 278 594 b 164 444 278 556 207 447 b 263 625 167 482 215 625 b 278 594 278 625 278 604 z "},"ì":{"ha":278,"x_min":0,"x_max":0,"o":"m 233 961 b 249 889 231 942 238 906 b 365 786 264 868 340 786 b 392 810 374 786 389 801 b 257 992 382 849 296 992 b 233 961 239 992 235 976 z m 142 194 b 394 493 226 194 394 424 b 378 514 394 506 392 514 b 178 292 326 514 217 292 b 156 338 157 292 156 324 b 222 631 156 507 222 569 b 168 675 222 667 201 675 b 49 376 96 675 49 494 b 142 194 49 318 63 194 z "},"í":{"ha":278,"x_min":0,"x_max":0,"o":"m 224 815 b 228 794 224 808 225 801 l 235 790 b 399 958 260 790 397 933 b 365 983 400 974 378 983 b 224 815 326 983 228 851 z m 142 194 b 394 493 226 194 394 424 b 378 514 394 506 392 514 b 178 292 326 514 217 292 b 156 338 157 292 156 324 b 222 631 156 507 222 569 b 168 675 222 667 201 675 b 49 376 96 675 49 494 b 142 194 49 318 63 194 z "},"î":{"ha":278,"x_min":0,"x_max":0,"o":"m 199 792 b 321 917 242 792 286 894 b 418 785 344 890 372 785 b 435 793 424 785 431 788 l 438 799 l 438 800 b 374 989 439 815 383 978 b 342 1000 365 997 354 1000 b 328 1006 338 1003 333 1006 b 188 819 301 1006 199 849 b 199 792 188 808 190 800 z m 142 194 b 394 493 226 194 394 424 b 378 514 394 506 392 514 b 178 292 326 514 217 292 b 156 338 157 292 156 324 b 222 631 156 507 222 569 b 168 675 222 667 201 675 b 49 376 96 675 49 494 b 142 194 49 318 63 194 z "},"ï":{"ha":278,"x_min":0,"x_max":0,"o":"m 393 949 b 343 883 354 949 346 915 b 392 818 340 851 356 818 b 456 879 425 818 453 847 b 393 949 458 907 421 949 z m 165 893 b 203 832 164 868 174 832 b 253 893 224 832 251 875 b 222 936 256 914 246 936 b 165 893 185 936 169 935 z m 142 194 b 394 493 226 194 394 424 b 378 514 394 506 392 514 b 178 292 326 514 217 292 b 156 338 157 292 156 324 b 222 631 156 507 222 569 b 168 675 222 667 201 675 b 49 376 96 675 49 494 b 142 194 49 318 63 194 z "},"ł":{"ha":472,"x_min":0,"x_max":0,"o":"m 167 15 b 599 486 315 15 589 411 b 574 514 592 503 582 514 b 203 126 517 514 310 126 b 153 228 172 126 153 167 b 183 506 153 314 163 454 b 544 1064 382 606 544 864 b 440 1226 544 1163 503 1226 b 144 874 328 1226 221 1072 b 43 839 97 860 53 846 b 15 793 26 828 13 814 b 57 765 19 771 38 765 b 110 775 75 765 93 771 b 32 307 63 621 32 450 b 167 15 32 118 79 15 z m 299 914 b 429 1129 347 1029 403 1129 b 447 1074 447 1129 447 1085 b 419 932 447 1032 438 983 b 299 914 408 940 343 925 z m 207 617 b 263 819 213 667 235 742 b 396 872 313 836 363 854 b 207 617 351 774 282 675 z "},"ñ":{"ha":583,"x_min":0,"x_max":0,"o":"m 271 832 b 279 817 271 826 271 817 b 386 868 290 817 338 868 b 519 818 426 868 464 818 b 656 925 569 818 656 860 b 643 944 656 933 651 944 b 540 889 621 944 585 889 b 385 950 488 889 442 950 b 271 832 322 950 271 893 z m 401 83 b 696 503 510 83 696 401 l 696 511 b 683 514 693 513 686 514 b 464 217 647 514 479 217 b 456 247 451 217 456 239 b 544 589 456 336 544 463 b 431 772 544 651 510 772 b 179 411 321 772 215 499 b 203 629 186 483 203 557 b 156 725 203 660 199 725 b 49 356 72 725 49 414 b 114 175 49 318 56 175 b 408 661 214 175 326 661 b 435 601 433 661 435 618 b 349 186 435 500 349 332 b 401 83 349 153 354 83 z "},"ò":{"ha":514,"x_min":0,"x_max":0,"o":"m 351 961 b 367 889 349 942 356 906 b 483 786 382 868 458 786 b 510 810 492 786 507 801 b 375 992 500 849 414 992 b 351 961 357 992 353 976 z m 174 111 b 408 349 278 111 368 218 b 610 496 493 358 610 443 b 593 524 610 508 603 521 b 428 435 550 489 475 447 b 431 489 431 453 431 471 b 274 750 431 626 357 750 b 129 596 206 750 129 668 b 129 586 129 593 129 589 b 22 336 61 531 22 439 b 174 111 22 206 86 111 z m 346 450 b 219 594 286 483 219 553 b 271 649 219 619 246 649 b 347 482 311 649 347 569 b 346 450 347 471 347 461 z m 331 360 b 210 194 307 271 263 194 b 138 322 172 194 138 256 b 183 472 138 375 160 442 b 331 360 222 424 278 381 z "},"ó":{"ha":514,"x_min":0,"x_max":0,"o":"m 342 815 b 346 794 342 808 343 801 l 353 790 b 517 958 378 790 515 933 b 483 983 518 974 496 983 b 342 815 444 983 346 851 z m 174 111 b 408 349 278 111 368 218 b 610 496 493 358 610 443 b 593 524 610 508 603 521 b 428 435 550 489 475 447 b 431 489 431 453 431 471 b 274 750 431 626 357 750 b 129 596 206 750 129 668 b 129 586 129 593 129 589 b 22 336 61 531 22 439 b 174 111 22 206 86 111 z m 346 450 b 219 594 286 483 219 553 b 271 649 219 619 246 649 b 347 482 311 649 347 569 b 346 450 347 471 347 461 z m 331 360 b 210 194 307 271 263 194 b 138 322 172 194 138 256 b 183 472 138 375 160 442 b 331 360 222 424 278 381 z "},"ô":{"ha":514,"x_min":0,"x_max":0,"o":"m 317 792 b 439 917 360 792 404 894 b 536 785 463 890 490 785 b 553 793 542 785 549 788 l 556 799 l 556 800 b 492 989 557 815 501 978 b 460 1000 483 997 472 1000 b 446 1006 456 1003 451 1006 b 306 819 419 1006 317 849 b 317 792 306 808 308 800 z m 174 111 b 408 349 278 111 368 218 b 610 496 493 358 610 443 b 593 524 610 508 603 521 b 428 435 550 489 475 447 b 431 489 431 453 431 471 b 274 750 431 626 357 750 b 129 596 206 750 129 668 b 129 586 129 593 129 589 b 22 336 61 531 22 439 b 174 111 22 206 86 111 z m 346 450 b 219 594 286 483 219 553 b 271 649 219 619 246 649 b 347 482 311 649 347 569 b 346 450 347 471 347 461 z m 331 360 b 210 194 307 271 263 194 b 138 322 172 194 138 256 b 183 472 138 375 160 442 b 331 360 222 424 278 381 z "},"õ":{"ha":514,"x_min":0,"x_max":0,"o":"m 236 832 b 244 817 236 826 236 817 b 351 868 256 817 303 868 b 485 818 392 868 429 818 b 621 925 535 818 621 860 b 608 944 621 933 617 944 b 506 889 586 944 550 889 b 350 950 453 889 407 950 b 236 832 288 950 236 893 z m 174 111 b 408 349 278 111 368 218 b 610 496 493 358 610 443 b 593 524 610 508 603 521 b 428 435 550 489 475 447 b 431 489 431 453 431 471 b 274 750 431 626 357 750 b 129 596 206 750 129 668 b 129 586 129 593 129 589 b 22 336 61 531 22 439 b 174 111 22 206 86 111 z m 346 450 b 219 594 286 483 219 553 b 271 649 219 619 246 649 b 347 482 311 649 347 569 b 346 450 347 471 347 461 z m 331 360 b 210 194 307 271 263 194 b 138 322 172 194 138 256 b 183 472 138 375 160 442 b 331 360 222 424 278 381 z "},"ö":{"ha":514,"x_min":0,"x_max":0,"o":"m 511 949 b 461 883 472 949 464 915 b 510 818 458 851 474 818 b 574 879 543 818 571 847 b 511 949 576 907 539 949 z m 283 893 b 321 832 282 868 292 832 b 371 893 342 832 369 875 b 340 936 374 914 364 936 b 283 893 303 936 288 935 z m 174 111 b 408 349 278 111 368 218 b 610 496 493 358 610 443 b 593 524 610 508 603 521 b 428 435 550 489 475 447 b 431 489 431 453 431 471 b 274 750 431 626 357 750 b 129 596 206 750 129 668 b 129 586 129 593 129 589 b 22 336 61 531 22 439 b 174 111 22 206 86 111 z m 346 450 b 219 594 286 483 219 553 b 271 649 219 619 246 649 b 347 482 311 649 347 569 b 346 450 347 471 347 461 z m 331 360 b 210 194 307 271 263 194 b 138 322 172 194 138 256 b 183 472 138 375 160 442 b 331 360 222 424 278 381 z "},"ø":{"ha":514,"x_min":0,"x_max":0,"o":"m 174 111 b 408 349 278 111 368 218 b 610 496 493 358 610 443 b 593 524 610 508 603 521 b 428 435 550 489 475 447 b 431 489 431 453 431 471 b 396 649 431 547 418 604 b 413 689 401 661 407 675 b 458 811 422 711 458 783 b 433 836 458 822 451 836 b 367 756 401 836 378 785 b 350 715 363 747 357 733 b 274 750 326 736 301 750 b 129 596 206 750 129 668 b 129 586 129 593 129 589 b 22 336 61 531 22 439 b 118 125 22 235 60 156 b 81 7 94 63 81 17 b 107 -18 81 -12 90 -18 b 174 111 117 -18 147 50 z m 268 513 b 219 594 239 540 219 572 b 271 649 219 619 246 649 b 311 621 286 649 299 639 b 268 513 299 589 283 551 z m 318 467 b 344 528 326 486 336 507 b 347 482 347 514 347 497 b 346 450 347 471 347 461 b 318 467 338 456 328 460 z m 160 233 b 138 322 146 257 138 289 b 183 472 138 375 160 442 b 233 422 197 454 215 438 b 160 233 208 358 182 293 z m 207 194 l 211 204 b 285 385 238 268 261 328 b 331 360 300 375 315 365 b 207 194 317 306 276 194 z "},"œ":{"ha":681,"x_min":0,"x_max":0,"o":"m 496 213 b 794 489 633 213 794 379 b 793 500 794 493 794 496 b 767 514 786 508 778 514 b 539 292 731 457 615 292 b 479 369 500 292 483 335 b 554 417 506 382 532 399 b 667 610 618 458 667 542 b 582 694 667 664 638 694 b 417 592 510 694 454 651 b 274 750 392 682 335 750 b 129 596 206 750 129 668 b 129 586 129 593 129 589 b 22 336 61 531 22 439 b 174 111 22 206 86 111 b 383 283 260 111 336 185 b 496 213 408 244 447 213 z m 346 450 b 219 594 286 483 219 553 b 271 649 219 619 246 649 b 347 482 311 649 347 569 b 346 450 347 471 347 461 z m 597 594 b 544 489 597 572 574 524 b 485 457 525 478 504 467 b 582 625 494 507 539 625 b 597 594 597 625 597 604 z m 331 360 b 210 194 307 271 263 194 b 138 322 172 194 138 256 b 183 472 138 375 160 442 b 331 360 222 424 278 381 z "},"š":{"ha":500,"x_min":0,"x_max":0,"o":"m 374 779 b 426 796 392 779 410 783 b 550 1004 446 813 549 981 b 538 1015 551 1013 544 1015 b 410 853 481 989 446 900 b 332 994 403 879 360 994 b 299 949 308 994 300 968 b 374 779 294 908 336 779 z m 200 308 b 33 79 106 236 33 153 b 176 -62 33 -3 96 -62 b 438 169 301 -62 438 57 b 365 336 438 246 407 297 b 599 486 458 393 553 444 b 578 513 601 500 592 515 b 307 382 526 500 415 450 b 174 518 240 428 174 458 b 300 686 174 576 233 686 b 354 628 332 686 354 667 b 338 535 354 596 338 567 b 367 503 338 517 349 503 b 446 608 417 503 446 567 b 299 756 446 704 394 756 b 58 501 157 756 58 639 b 200 308 58 394 129 347 z m 132 100 b 267 271 132 157 190 215 b 340 163 308 244 340 214 b 203 32 340 111 267 32 b 132 100 161 32 132 64 z "},"ù":{"ha":611,"x_min":0,"x_max":0,"o":"m 400 961 b 415 889 397 942 404 906 b 532 786 431 868 507 786 b 558 810 540 786 556 801 b 424 992 549 849 463 992 b 400 961 406 992 401 976 z m 149 224 b 371 449 260 224 339 351 b 336 225 360 388 336 286 b 433 97 336 161 361 97 b 567 176 488 97 533 138 b 740 494 608 225 740 439 b 725 514 740 506 739 514 b 471 194 669 514 525 194 b 457 219 458 194 457 211 b 508 582 457 344 508 463 b 433 650 508 621 482 650 b 176 321 371 650 281 321 b 150 368 157 321 150 332 b 219 638 150 450 188 535 b 188 690 225 657 217 690 b 39 389 82 690 39 489 b 149 224 39 321 51 224 z "},"ú":{"ha":611,"x_min":0,"x_max":0,"o":"m 390 815 b 394 794 390 808 392 801 l 401 790 b 565 958 426 790 564 933 b 532 983 567 974 544 983 b 390 815 493 983 394 851 z m 149 224 b 371 449 260 224 339 351 b 336 225 360 388 336 286 b 433 97 336 161 361 97 b 567 176 488 97 533 138 b 740 494 608 225 740 439 b 725 514 740 506 739 514 b 471 194 669 514 525 194 b 457 219 458 194 457 211 b 508 582 457 344 508 463 b 433 650 508 621 482 650 b 176 321 371 650 281 321 b 150 368 157 321 150 332 b 219 638 150 450 188 535 b 188 690 225 657 217 690 b 39 389 82 690 39 489 b 149 224 39 321 51 224 z "},"û":{"ha":611,"x_min":0,"x_max":0,"o":"m 365 792 b 488 917 408 792 453 894 b 585 785 511 890 539 785 b 601 793 590 785 597 788 l 604 799 l 604 800 b 540 989 606 815 550 978 b 508 1000 532 997 521 1000 b 494 1006 504 1003 500 1006 b 354 819 468 1006 365 849 b 365 792 354 808 357 800 z m 149 224 b 371 449 260 224 339 351 b 336 225 360 388 336 286 b 433 97 336 161 361 97 b 567 176 488 97 533 138 b 740 494 608 225 740 439 b 725 514 740 506 739 514 b 471 194 669 514 525 194 b 457 219 458 194 457 211 b 508 582 457 344 508 463 b 433 650 508 621 482 650 b 176 321 371 650 281 321 b 150 368 157 321 150 332 b 219 638 150 450 188 535 b 188 690 225 657 217 690 b 39 389 82 690 39 489 b 149 224 39 321 51 224 z "},"ü":{"ha":611,"x_min":0,"x_max":0,"o":"m 560 949 b 510 883 521 949 513 915 b 558 818 507 851 522 818 b 622 879 592 818 619 847 b 560 949 625 907 588 949 z m 332 893 b 369 832 331 868 340 832 b 419 893 390 832 418 875 b 389 936 422 914 413 936 b 332 893 351 936 336 935 z m 149 224 b 371 449 260 224 339 351 b 336 225 360 388 336 286 b 433 97 336 161 361 97 b 567 176 488 97 533 138 b 740 494 608 225 740 439 b 725 514 740 506 739 514 b 471 194 669 514 525 194 b 457 219 458 194 457 211 b 508 582 457 344 508 463 b 433 650 508 621 482 650 b 176 321 371 650 281 321 b 150 368 157 321 150 332 b 219 638 150 450 188 535 b 188 690 225 657 217 690 b 39 389 82 690 39 489 b 149 224 39 321 51 224 z "},"ý":{"ha":611,"x_min":0,"x_max":0,"o":"m 390 815 b 394 794 390 808 392 801 l 401 790 b 565 958 426 790 564 933 b 532 983 567 974 544 983 b 390 815 493 983 394 851 z m 161 -261 b 496 278 360 -261 485 118 b 738 486 583 338 672 400 b 711 514 739 501 726 514 b 506 375 688 514 535 397 b 515 513 510 421 515 467 b 421 681 515 576 506 681 b 171 361 364 681 228 361 b 156 382 158 361 156 372 b 243 694 156 485 243 653 b 181 742 243 726 206 742 b 126 722 158 742 143 736 b 33 376 90 694 33 431 b 119 250 33 319 50 250 b 394 528 219 250 351 447 b 396 507 396 521 396 514 b 388 306 396 440 392 372 b 47 -139 240 210 47 54 b 161 -261 47 -207 90 -261 z m 168 -178 b 147 -125 147 -178 147 -137 b 379 208 147 -28 269 121 b 168 -178 372 118 278 -178 z "},"ÿ":{"ha":611,"x_min":0,"x_max":0,"o":"m 560 949 b 510 883 521 949 513 915 b 558 818 507 851 522 818 b 622 879 592 818 619 847 b 560 949 625 907 588 949 z m 332 893 b 369 832 331 868 340 832 b 419 893 390 832 418 875 b 389 936 422 914 413 936 b 332 893 351 936 336 935 z m 161 -261 b 496 278 360 -261 485 118 b 738 486 583 338 672 400 b 711 514 739 501 726 514 b 506 375 688 514 535 397 b 515 513 510 421 515 467 b 421 681 515 576 506 681 b 171 361 364 681 228 361 b 156 382 158 361 156 372 b 243 694 156 485 243 653 b 181 742 243 726 206 742 b 126 722 158 742 143 736 b 33 376 90 694 33 431 b 119 250 33 319 50 250 b 394 528 219 250 351 447 b 396 507 396 521 396 514 b 388 306 396 440 392 372 b 47 -139 240 210 47 54 b 161 -261 47 -207 90 -261 z m 168 -178 b 147 -125 147 -178 147 -137 b 379 208 147 -28 269 121 b 168 -178 372 118 278 -178 z "},"ž":{"ha":556,"x_min":0,"x_max":0,"o":"m 401 779 b 454 796 419 779 438 783 b 578 1004 474 813 576 981 b 565 1015 579 1013 572 1015 b 438 853 508 989 474 900 b 360 994 431 879 388 994 b 326 949 336 994 328 968 b 401 779 322 908 364 779 z m 85 500 b 111 472 85 485 96 472 b 314 636 128 472 194 636 b 336 632 321 636 329 635 l 338 626 b 183 372 331 571 183 435 b 225 326 183 351 203 326 b 294 354 233 326 263 354 b 356 288 332 354 343 315 b 75 -76 233 201 75 90 b 175 -187 75 -139 110 -187 b 465 242 368 -187 465 81 b 463 274 465 253 464 263 b 682 500 500 299 682 465 b 656 514 682 515 667 515 b 436 351 589 485 497 399 b 342 417 413 385 386 417 b 311 414 332 417 321 415 b 463 654 347 488 463 524 b 374 743 463 706 425 743 b 85 500 265 743 85 617 z m 376 208 b 197 -104 378 111 321 -104 b 174 -62 176 -104 174 -79 b 376 208 174 67 286 138 z "},"ﬁ":{"ha":708,"x_min":0,"x_max":0,"o":"m 572 194 b 825 493 657 194 825 424 b 808 514 825 506 822 514 b 608 292 757 514 647 292 b 586 338 588 292 586 324 b 653 631 586 507 653 569 b 599 675 653 667 632 675 b 492 496 549 675 510 589 b 167 319 414 447 258 321 l 182 486 b 335 675 219 536 263 583 b 553 1114 492 875 553 994 b 435 1254 553 1219 501 1254 b 46 286 240 1254 46 769 b 231 -175 46 -3 115 -175 b 350 -64 294 -175 350 -124 b 204 264 350 -3 292 128 b 481 408 274 265 404 339 b 479 376 479 397 479 386 b 572 194 479 318 493 194 z m 192 611 b 429 1143 244 910 349 1143 b 457 1104 449 1143 457 1131 b 192 611 457 1006 335 779 z m 626 750 b 697 844 674 750 697 804 b 653 908 697 872 688 908 b 574 815 596 908 574 858 b 626 750 574 786 594 750 z m 253 -49 b 229 -92 253 -72 242 -92 b 156 175 194 -92 156 49 b 157 208 156 175 156 192 b 253 -49 183 149 253 11 z "},"ﬂ":{"ha":903,"x_min":0,"x_max":0,"o":"m 231 -175 b 350 -64 294 -175 350 -124 b 204 264 350 -3 292 128 b 465 396 269 265 388 331 b 463 307 463 365 463 336 b 597 15 463 118 510 15 b 1029 486 746 15 1019 411 b 1004 514 1022 503 1013 514 b 633 126 947 514 740 126 b 583 228 603 126 583 167 b 614 506 583 314 593 454 b 975 1064 813 606 975 864 b 871 1226 975 1163 933 1226 b 475 485 690 1226 522 831 b 167 319 393 431 251 321 l 182 486 b 335 675 219 536 263 583 b 553 1114 492 875 553 994 b 435 1254 553 1219 501 1254 b 46 286 240 1254 46 769 b 231 -175 46 -3 115 -175 z m 192 611 b 429 1143 244 910 349 1143 b 457 1104 449 1143 457 1131 b 192 611 457 1006 335 779 z m 638 617 b 860 1129 653 764 810 1129 b 878 1074 878 1129 878 1085 b 638 617 878 936 767 718 z m 253 -49 b 229 -92 253 -72 242 -92 b 156 175 194 -92 156 49 b 157 208 156 175 156 192 b 253 -49 183 149 253 11 z "}}}
